<?xml version="1.0" encoding="utf-8"?>
<!-- Generator: Adobe Illustrator 27.3.1, SVG Export Plug-In . SVG Version: 6.00 Build 0)  -->
<svg version="1.1" id="Layer_1" xmlns="http://www.w3.org/2000/svg" xmlns:xlink="http://www.w3.org/1999/xlink" x="0px" y="0px"
	 viewBox="0 0 1920 1920" style="enable-background:new 0 0 1920 1920;" xml:space="preserve">
<style type="text/css">
	.st0{fill:#252A38;}
	.st1{fill:#1F95F5;}
	.st2{fill:#50A06D;}
	.st3{fill:#FFBE40;}
	.st4{fill:#A159ED;}
	.st5{fill:#F87172;}
	.st6{fill:url(#SVGID_1_);}
	.st7{fill:url(#SVGID_00000102507233394632820690000017974593325457968554_);}
	.st8{fill:url(#SVGID_00000004506838823485392340000014761707422088776323_);}
	.st9{fill:url(#SVGID_00000117650757347694889650000002226505754729606315_);}
	.st10{fill:url(#SVGID_00000016049390031744518330000003544145162992731300_);}
	.st11{fill:url(#SVGID_00000082340813160491010640000005689344267762630797_);}
	.st12{fill:url(#SVGID_00000110458017928774731920000012152519085929047686_);}
	.st13{fill:url(#SVGID_00000025439196953490558170000016590441735598008757_);}
	.st14{fill:url(#SVGID_00000105400470853460484940000002495787877440804238_);}
	.st15{fill:url(#SVGID_00000075125022735964229900000010692117234203029665_);}
	.st16{fill:url(#SVGID_00000109713135678086169000000016016532005998284939_);}
	.st17{fill:#FFFFFF;stroke:#FFBE40;stroke-width:4;stroke-miterlimit:10;}
	.st18{fill:#18A0FB;}
	.st19{fill:#FFFFFF;}
	.st20{fill:none;stroke:#50A06D;stroke-width:2.9623;stroke-linecap:round;stroke-linejoin:round;stroke-miterlimit:10;}
	.st21{fill:none;stroke:#1F95F5;stroke-width:3.1624;stroke-linecap:round;stroke-linejoin:round;stroke-miterlimit:10;}
	.st22{fill:none;stroke:#F87172;stroke-width:3.7083;stroke-linecap:round;stroke-linejoin:round;stroke-miterlimit:10;}
	.st23{fill:none;stroke:#FFBE40;stroke-width:3.4598;stroke-linecap:round;stroke-linejoin:round;stroke-miterlimit:10;}
	.st24{opacity:0.65;}
	.st25{fill:#DCF1FF;}
	.st26{fill:#3B3F4C;}
	.st27{fill:#1668AC;}
	.st28{fill:#BCDFFC;}
	.st29{opacity:0.5;fill:#FFFFFF;}
	.st30{opacity:0.3;fill:#000901;}
	.st31{fill:#CCA241;}
	.st32{fill:#F2AF41;}
	.st33{fill:#DEDEDF;}
	.st34{opacity:0.2;fill:#DEDEDF;}
	.st35{opacity:0.2;}
	.st36{opacity:0.2;fill:#000901;}
	.st37{opacity:0.5;fill:#5466ED;}
	.st38{opacity:0.5;fill:#38704C;}
	.st39{opacity:0.5;fill:#8147BE;}
	.st40{opacity:0.5;fill:#AD4445;}
	.st41{fill:#FFFFFF;stroke:#A159ED;stroke-width:1.702;stroke-miterlimit:10;}
	.st42{fill:#F3E9FF;stroke:#A159ED;stroke-width:1.702;stroke-miterlimit:10;}
	.st43{fill:#F76162;}
	.st44{fill:#E6AB3A;}
</style>
<g>
	<g>
		<path class="st0" d="M562.5,437.7c-27.8,0-56.1-7-82-21.8C401.2,370.5,373.6,269.4,419,190c45.4-79.4,146.5-107,225.9-61.7
			c79.4,45.4,107,146.4,61.6,225.7l-0.1,0.2C675.8,407.7,620,437.7,562.5,437.7z"/>
	</g>
	<g>
		<path class="st0" d="M563,437.5h-0.2c-91.4,0-165.5-74.1-165.5-165.5s74.1-165.5,165.5-165.5S728.4,180.5,728.4,272
			S654.4,437.5,563,437.5z"/>
	</g>
	<g>
		<path class="st0" d="M563,1813.6c-91.4,0-165.6-74.1-165.6-165.5s74-165.5,165.4-165.5h0.2c91.4,0,165.5,74.1,165.5,165.5
			S654.4,1813.6,563,1813.6z"/>
	</g>
	<g>
		<path class="st0" d="M562.9,1813.6c-57.5,0-113.3-30-143.9-83.4c-45.4-79.4-17.8-180.6,61.5-225.9
			c79.4-45.3,180.4-17.9,225.8,61.5l0.1,0.2c45.4,79.4,17.8,180.5-61.6,225.8C619,1806.6,590.8,1813.6,562.9,1813.6z"/>
	</g>
	<g>
		<path class="st0" d="M165.5,1125.5C74.1,1125.5,0,1051.4,0,960c0-171.4,45.8-339.7,132.5-486.7c84-142.4,204.1-261.5,347.2-344.4
			c79.1-45.8,180.4-18.8,226.2,60.3c45.8,79.1,18.8,180.4-60.3,226.2C451.6,527.7,331,736.4,331,960
			C331,1051.4,256.9,1125.5,165.5,1125.5z"/>
	</g>
	<g>
		<path class="st1" d="M562.5,1813.4c-28.1,0-56.7-7.2-82.8-22.3c-143.2-82.9-263.2-202-347.2-344.4C45.8,1299.7,0,1131.4,0,960
			c0-91.4,74.1-165.5,165.5-165.5S331,868.6,331,960c0,223.6,120.5,432.3,314.6,544.6c79.1,45.8,106.1,147.1,60.3,226.2
			C675.2,1783.8,619.6,1813.4,562.5,1813.4z"/>
	</g>
	<g>
		<path class="st0" d="M1357.1,1813.5c-27.8,0-56-7-81.9-21.8c-79.4-45.4-107-146.4-61.6-225.7l0.1-0.2
			c45.4-79.4,146.4-107,225.8-61.6c79.4,45.4,106.9,146.5,61.6,225.8C1470.5,1783.5,1414.6,1813.5,1357.1,1813.5z"/>
	</g>
	<g>
		<path class="st0" d="M1357.2,1813.6c-91.4,0-165.6-74.1-165.6-165.5s74-165.5,165.4-165.5h0.2c91.4,0,165.5,74.1,165.5,165.5
			S1448.7,1813.6,1357.2,1813.6z"/>
	</g>
	<g>
		<path class="st2" d="M960,1920c-168.4,0-334.3-44.5-479.9-128.7c-79.1-45.8-106.2-147-60.4-226.1c45.8-79.1,147-106.2,226.1-60.4
			c95.3,55.1,203.9,84.2,314.2,84.2s218.9-29.1,314.2-84.2c79.1-45.8,180.4-18.7,226.1,60.4c45.8,79.1,18.7,180.4-60.4,226.1
			C1294.3,1875.5,1128.4,1920,960,1920z"/>
	</g>
	<g>
		<path class="st3" d="M1357.5,1813.4c-57.1,0-112.7-29.6-143.4-82.6c-45.8-79.1-18.8-180.4,60.3-226.2
			c194-112.3,314.5-321,314.5-544.6c0-91.4,74.1-165.5,165.5-165.5c91.4,0,165.5,74.1,165.5,165.5c0,171.4-45.8,339.7-132.5,486.7
			c-84,142.4-204.1,261.5-347.2,344.4C1414.2,1806.2,1385.6,1813.4,1357.5,1813.4z"/>
	</g>
	<g>
		<path class="st4" d="M1356.9,437.5c-28.1,0-56.6-7.2-82.7-22.3C1178.9,360.2,1070.3,331,960,331s-218.9,29.1-314.2,84.2
			C566.7,461,465.4,434,419.7,354.8c-45.8-79.1-18.7-180.4,60.4-226.1C625.6,44.5,791.6,0,960,0c168.4,0,334.4,44.5,479.9,128.7
			c79.1,45.8,106.2,147,60.4,226.1C1469.7,407.9,1414.1,437.5,1356.9,437.5z"/>
	</g>
	<g>
		<path class="st0" d="M1357.2,437.5h-0.2c-91.4,0-165.5-74.1-165.5-165.5s74.1-165.5,165.5-165.5c91.4,0,165.6,74.1,165.6,165.5
			S1448.7,437.5,1357.2,437.5z"/>
	</g>
	<g>
		<path class="st0" d="M1357.4,437.6c-57.1,0-112.6-29.5-143.2-82.5l-0.1-0.2c-45.8-79.1-18.9-180.4,60.2-226.2
			c79.1-45.9,180.4-18.9,226.2,60.2c45.8,79.1,19,180.4-60.1,226.3C1414.2,430.4,1385.6,437.6,1357.4,437.6z"/>
	</g>
	<g>
		<circle class="st0" cx="563.1" cy="272" r="165.5"/>
	</g>
	<g>
		<path class="st5" d="M1754.5,1125.5c-91.4,0-165.5-74.1-165.5-165.5c0-223.6-120.5-432.3-314.5-544.6
			c-79.1-45.8-106.1-147.1-60.3-226.2c45.8-79.1,147.1-106.1,226.2-60.3c143.2,82.9,263.2,202,347.2,344.4
			c86.7,147,132.5,315.3,132.5,486.7C1920,1051.4,1845.9,1125.5,1754.5,1125.5z"/>
	</g>
	<g>
		<circle class="st4" cx="1357.1" cy="272" r="165.5"/>
	</g>
</g>
<g>
	<path class="st0" d="M645.6,415.4c-80.8,46.8-148.9,110.3-200.9,184.7L190.4,386.4c77.8-104.2,176.4-192.1,289.4-257.5
		c79.1-45.8,180.4-18.8,226.2,60.3C751.7,268.3,724.7,369.6,645.6,415.4z"/>
</g>
<g>
	<path class="st4" d="M1500.3,354.8c-30.7,53-86.3,82.7-143.4,82.7c-28.1,0-56.6-7.2-82.7-22.3c-58.4-33.8-121.9-57.8-187.6-71.3
		l35.9-330c111.4,19.1,219.1,57.9,317.5,114.8C1519.1,174.4,1546.1,275.7,1500.3,354.8z"/>
</g>
</svg>
