<svg width="28" height="28" viewBox="0 0 28 28" fill="none" xmlns="http://www.w3.org/2000/svg">
<g clip-path="url(#clip0_63_82871)">
<path d="M8.525 22.1864L4.17438 14.6508C3.94188 14.2483 3.94188 13.752 4.17438 13.3495L8.525 5.8142C8.75719 5.41201 9.18594 5.1642 9.65 5.16357H18.3553C18.8178 5.16576 19.2444 5.41357 19.4756 5.8142L23.8256 13.3495C24.0581 13.752 24.0581 14.2483 23.8256 14.6508L19.475 22.1864C19.2428 22.5886 18.8141 22.8364 18.35 22.837H9.64687C9.18344 22.8354 8.75625 22.5876 8.52406 22.1864H8.525Z" fill="#4386FA"/>
<path opacity="0.1" d="M16.7182 11.5732C16.7182 11.5732 17.9276 14.4742 16.2789 16.1186C14.6301 17.7629 11.6279 16.7104 11.6279 16.7104L17.7348 22.8342H18.3548C18.8192 22.8336 19.2479 22.5854 19.4798 22.1836L22.3598 17.1967L16.7182 11.5732Z" fill="black"/>
<path d="M18.1458 17.5091L16.8123 16.1726C16.7978 16.1577 16.7812 16.1451 16.763 16.1351C17.3302 15.4045 17.5975 14.4852 17.5104 13.5644C17.4234 12.6435 16.9886 11.7906 16.2945 11.1792C15.6005 10.5678 14.6995 10.2441 13.7751 10.2739C12.8506 10.3037 11.9723 10.6848 11.3191 11.3396C10.6659 11.9944 10.287 12.8737 10.2594 13.7982C10.2319 14.7227 10.5579 15.6229 11.1709 16.3154C11.784 17.0079 12.6381 17.4407 13.5591 17.5254C14.4801 17.6102 15.3988 17.3406 16.128 16.7716C16.1375 16.7889 16.1494 16.8046 16.1633 16.8185L17.4999 18.1551C17.5391 18.1943 17.5923 18.2163 17.6478 18.2163C17.7033 18.2163 17.7565 18.1943 17.7958 18.1551L18.1458 17.8051C18.185 17.7658 18.207 17.7126 18.207 17.6571C18.207 17.6016 18.185 17.5484 18.1458 17.5091ZM13.8874 16.6448C13.3465 16.6448 12.8178 16.4845 12.3681 16.1841C11.9184 15.8836 11.5679 15.4566 11.3609 14.9569C11.1539 14.4573 11.0997 13.9075 11.2052 13.377C11.3107 12.8466 11.5711 12.3593 11.9535 11.9769C12.336 11.5945 12.8232 11.334 13.3537 11.2285C13.8841 11.1231 14.4339 11.1772 14.9336 11.3842C15.4332 11.5912 15.8603 11.9417 16.1607 12.3915C16.4612 12.8412 16.6215 13.3699 16.6214 13.9107C16.6213 14.6358 16.3333 15.3312 15.8205 15.8439C15.3078 16.3566 14.6124 16.6447 13.8874 16.6448ZM12.1395 13.7648V14.8948C12.3136 15.202 12.5655 15.4582 12.8702 15.637V13.7579L12.1395 13.7648ZM13.5067 12.8279V15.8816C13.7482 15.9262 13.9958 15.9262 14.2373 15.8816V12.8279H13.5067ZM15.6205 14.8923V14.2229H14.8905V15.6291C15.1947 15.4509 15.4467 15.1957 15.6211 14.8891L15.6205 14.8923Z" fill="white"/>
</g>
<defs>
<clipPath id="clip0_63_82871">
<rect width="20" height="20" fill="white" transform="translate(4 4)"/>
</clipPath>
</defs>
</svg>
