<svg width="28" height="28" viewBox="0 0 28 28" fill="none" xmlns="http://www.w3.org/2000/svg">
<path d="M11.3334 4.42105C10.167 4.60322 9.03652 5.01316 8.0439 5.65571C3.11433 8.84668 3.32244 16.3227 8.15355 19.4667C8.94874 19.9842 9.85244 20.3549 10.7851 20.5339C11.7132 20.7119 12.6949 20.7985 13.636 20.6637C14.884 20.4849 15.9954 20.1152 17.0351 19.3975C18.278 18.5394 19.425 17.393 20.0568 15.9957C22.2303 11.1888 19.348 5.52754 14.1842 4.48299C13.2965 4.30341 12.23 4.28102 11.3334 4.42105Z" fill="#669DF6"/>
<path d="M11.9909 9.02888C11.4344 9.12922 10.9044 9.3472 10.4559 9.69388C8.13238 11.49 8.84363 15.1442 11.662 15.9485C12.1323 16.0827 12.6025 16.1414 13.0874 16.0542C13.6725 15.949 14.25 15.71 14.7317 15.3607C17.6864 13.2194 15.5331 8.39022 11.9909 9.02888Z" fill="white"/>
<path d="M19.6671 16.5444C18.8146 17.9035 17.7386 18.7624 16.4873 19.7243C16.9757 20.4175 17.643 20.9896 18.2417 21.5883C18.6488 21.9953 19.0455 22.4702 19.5575 22.7487C21.3575 23.7274 23.1744 22.1609 22.9363 20.2725C22.7966 19.1652 21.7198 18.3777 20.9829 17.6409C20.5726 17.2307 20.197 16.7915 19.6671 16.5444Z" fill="#1A73E8"/>
</svg>
