<svg width="28" height="28" viewBox="0 0 28 28" fill="none" xmlns="http://www.w3.org/2000/svg">
<path d="M16.9674 5.09375H11.0331L9.55469 6.58246V8.0609H11.0331V6.58246H16.9674V8.0609H18.4459V6.58246L16.9674 5.09375Z" fill="#737373"/>
<path d="M11.0332 5.09375V6.58246H16.9675V5.09375H11.0332Z" fill="#BFBFBF"/>
<path d="M6.84394 8.06104L4 10.905V21.3875C4 22.2089 4.66735 22.866 5.47844 22.866H22.5216C23.3429 22.866 24 22.1986 24 21.3875V10.9152L21.1458 8.06104H6.84394Z" fill="url(#paint0_radial_63_82869)"/>
<path d="M6.22754 13.6152H21.782V22.876H6.22754V13.6152Z" fill="white"/>
<path d="M6.84394 8.06104L4 10.905V13.6155H24V10.9152L21.1458 8.06104H6.84394Z" fill="#E0E0E0"/>
<path d="M7.33691 21.7568H14.0002V22.8657H7.33691V21.7568Z" fill="#D1D1D1"/>
<path d="M6.22754 11.8906C6.22754 11.2541 6.74089 10.7407 7.37744 10.7407H20.6218C21.2583 10.7407 21.7717 11.2541 21.7717 11.8906V13.6155H6.22754V11.8906Z" fill="#4285F4"/>
<path d="M8.44574 12.1369C8.44574 12.4449 8.19934 12.6913 7.89133 12.6913C7.58332 12.6913 7.33691 12.4449 7.33691 12.1369C7.33691 11.8289 7.58332 11.5825 7.89133 11.5825C8.19934 11.5825 8.44574 11.8289 8.44574 12.1369ZM10.2938 12.1369C10.2938 12.4449 10.0474 12.6913 9.73938 12.6913C9.43137 12.6913 9.18496 12.4449 9.18496 12.1369C9.18496 11.8289 9.43137 11.5825 9.73938 11.5825C10.0474 11.5825 10.2938 11.8289 10.2938 12.1369Z" fill="#E6E6E6"/>
<path d="M21.7718 17.9995L19.4412 15.6689L18.6609 18.0817L15.4781 14.9092L15.3857 19.8065L16.5664 21.6546C16.741 21.6238 15.6835 22.8661 15.6835 22.8661H21.7718V17.9995Z" fill="#BABABA"/>
<path d="M20.3141 17.9071C20.3141 16.593 19.5441 15.4636 18.4456 14.9194V18.0406L16.9774 18.8312L15.4887 18.0406V14.9092C14.3901 15.4533 13.6406 16.593 13.6406 17.8969C13.6406 19.211 14.4004 20.3404 15.4989 20.8845V22.8661H18.4558V20.8845C19.5441 20.3507 20.3141 19.211 20.3141 17.9071Z" fill="#4D4D4D"/>
<path d="M7.33691 14.7241H12.5217V20.6481H7.33691V14.7241Z" fill="#D1D1D1"/>
<defs>
<radialGradient id="paint0_radial_63_82869" cx="0" cy="0" r="1" gradientUnits="userSpaceOnUse" gradientTransform="translate(3.41632 13.4666) rotate(44.9916) scale(13.945 10.7941)">
<stop stop-color="#F1F2F2"/>
<stop offset="1" stop-color="#E6E7E8"/>
</radialGradient>
</defs>
</svg>
