<svg width="28" height="28" viewBox="0 0 28 28" fill="none" xmlns="http://www.w3.org/2000/svg">
<g clip-path="url(#clip0_63_82867)">
<path d="M10.4804 6.51985C10.6918 5.96478 10.9826 5.45377 11.4143 5.03967C13.1412 3.35686 15.9958 3.77976 17.1676 5.8943C18.0487 7.49782 18.9826 9.06611 19.8901 10.652C21.4055 13.2864 22.9385 15.9207 24.4363 18.5639C25.6962 20.7754 24.3306 23.5683 21.8284 23.9472C20.2954 24.1762 18.8592 23.4714 18.0663 22.0969C16.7359 19.7798 15.3967 17.4626 14.0663 15.1542C14.0399 15.1013 14.0046 15.0573 13.9694 15.0132C13.8284 14.8987 13.7667 14.7313 13.6786 14.5815C13.0883 13.5419 12.4804 12.511 11.8901 11.4802C11.5112 10.8106 11.1148 10.1498 10.7359 9.4802C10.3923 8.88108 10.2337 8.2291 10.2513 7.54188C10.2778 7.18945 10.3218 6.83703 10.4804 6.51985Z" fill="#3C8BD9"/>
<path d="M10.4799 6.52002C10.4006 6.8372 10.3301 7.15438 10.3125 7.48918C10.2861 8.22927 10.4711 8.9165 10.8411 9.55967C11.8103 11.2249 12.7794 12.8989 13.7398 14.5729C13.8279 14.7227 13.8984 14.8724 13.9865 15.0134C13.4578 15.9297 12.9292 16.8372 12.3918 17.7535C11.6517 19.031 10.9116 20.3174 10.1627 21.5949C10.1275 21.5949 10.1187 21.5773 10.1098 21.5508C10.101 21.4804 10.1275 21.4187 10.1451 21.3482C10.5063 20.0266 10.2068 18.8548 9.29928 17.8504C8.74421 17.2425 8.03936 16.8989 7.22879 16.7843C6.17152 16.6346 5.2376 16.9077 4.4006 17.5685C4.25082 17.683 4.1539 17.8504 3.97769 17.9385C3.94245 17.9385 3.92483 17.9209 3.91602 17.8945C4.33892 17.1632 4.75302 16.4319 5.17593 15.7006C6.92042 12.6698 8.66491 9.63896 10.4182 6.61694C10.4358 6.58169 10.4623 6.55526 10.4799 6.52002Z" fill="#FABC04"/>
<path d="M3.95126 17.9208C4.11866 17.7711 4.27725 17.6125 4.45346 17.4715C6.59443 15.7799 9.81029 17.0045 10.2772 19.683C10.3918 20.3261 10.3301 20.9429 10.1363 21.5596C10.1275 21.6125 10.1187 21.6565 10.101 21.7094C10.0217 21.8504 9.95126 22.0001 9.86315 22.1411C9.07901 23.4363 7.92483 24.0794 6.40941 23.9825C4.67372 23.8592 3.30809 22.5552 3.0702 20.8283C2.95567 19.9913 3.12307 19.2072 3.55478 18.4847C3.64289 18.3261 3.74862 18.1852 3.84553 18.0266C3.88958 17.9913 3.87197 17.9208 3.95126 17.9208Z" fill="#34A852"/>
<path d="M3.9518 17.9205C3.91656 17.9557 3.91656 18.0174 3.85488 18.0262C3.84607 17.9645 3.88132 17.9293 3.91656 17.8853L3.9518 17.9205Z" fill="#FABC04"/>
<path d="M10.1005 21.7094C10.0653 21.6477 10.1005 21.6036 10.1358 21.5596C10.1446 21.5684 10.1622 21.586 10.171 21.5948L10.1005 21.7094Z" fill="#E1C025"/>
</g>
<defs>
<clipPath id="clip0_63_82867">
<rect width="21.9383" height="20" fill="white" transform="translate(3 4)"/>
</clipPath>
</defs>
</svg>
