<svg width="206" height="187" viewBox="0 0 206 187" fill="none" xmlns="http://www.w3.org/2000/svg">
<path d="M47.5 25V17.5C47.5 14.7425 45.2575 12.5 42.5 12.5H35C35 8.365 31.635 5 27.5 5C23.365 5 20 8.365 20 12.5H12.5C9.7425 12.5 7.5 14.7425 7.5 17.5V27.2025L9.1475 27.8C11.1525 28.525 12.5 30.415 12.5 32.5C12.5 34.585 11.1525 36.475 9.1475 37.2L7.5 37.7975V47.5C7.5 50.2575 9.7425 52.5 12.5 52.5H22.2025L22.8 50.8525C23.525 48.8475 25.415 47.5 27.5 47.5C29.585 47.5 31.475 48.8475 32.2 50.8525L32.7975 52.5H42.5C45.2575 52.5 47.5 50.2575 47.5 47.5V40C51.635 40 55 36.635 55 32.5C55 28.365 51.635 25 47.5 25ZM47.5 35H42.5L42.4925 47.5H36.13C34.3525 44.45 31.075 42.5 27.5 42.5C23.925 42.5 20.6475 44.45 18.87 47.5H12.5V41.13C15.55 39.3525 17.5 36.075 17.5 32.5C17.5 28.925 15.55 25.6475 12.5 23.87V17.5H25V12.5C25 11.837 25.2634 11.2011 25.7322 10.7322C26.2011 10.2634 26.837 10 27.5 10C28.163 10 28.7989 10.2634 29.2678 10.7322C29.7366 11.2011 30 11.837 30 12.5V17.5H42.5V30H47.5C48.163 30 48.7989 30.2634 49.2678 30.7322C49.7366 31.2011 50 31.837 50 32.5C50 33.163 49.7366 33.7989 49.2678 34.2678C48.7989 34.7366 48.163 35 47.5 35Z" fill="white" fill-opacity="0.1"/>
<path d="M171.833 91.3333V70.8333C171.833 63.2962 165.704 57.1667 158.167 57.1667H137.667C137.667 45.8643 128.469 36.6667 117.167 36.6667C105.864 36.6667 96.6667 45.8643 96.6667 57.1667H76.1667C68.6295 57.1667 62.5 63.2962 62.5 70.8333V97.3535L67.0032 98.9867C72.4835 100.968 76.1667 106.134 76.1667 111.833C76.1667 117.532 72.4835 122.698 67.0032 124.68L62.5 126.313V152.833C62.5 160.37 68.6295 166.5 76.1667 166.5H102.687L104.32 161.997C106.302 156.516 111.468 152.833 117.167 152.833C122.866 152.833 128.032 156.516 130.013 161.997L131.646 166.5H158.167C165.704 166.5 171.833 160.37 171.833 152.833V132.333C183.136 132.333 192.333 123.136 192.333 111.833C192.333 100.531 183.136 91.3333 171.833 91.3333ZM171.833 118.667H158.167L158.146 152.833H140.755C135.897 144.497 126.938 139.167 117.167 139.167C107.395 139.167 98.4365 144.497 93.578 152.833H76.1667V135.422C84.5033 130.563 89.8333 121.605 89.8333 111.833C89.8333 102.062 84.5033 93.1032 76.1667 88.2447V70.8333H110.333V57.1667C110.333 55.3544 111.053 53.6163 112.335 52.3348C113.616 51.0533 115.354 50.3333 117.167 50.3333C118.979 50.3333 120.717 51.0533 121.999 52.3348C123.28 53.6163 124 55.3544 124 57.1667V70.8333H158.167V105H171.833C173.646 105 175.384 105.72 176.665 107.001C177.947 108.283 178.667 110.021 178.667 111.833C178.667 113.646 177.947 115.384 176.665 116.665C175.384 117.947 173.646 118.667 171.833 118.667Z" fill="white" fill-opacity="0.1"/>
</svg>
