<?xml version="1.0" encoding="utf-8"?>
<!-- Generator: Adobe Illustrator 27.3.1, SVG Export Plug-In . SVG Version: 6.00 Build 0)  -->
<svg version="1.1" id="Layer_1" xmlns="http://www.w3.org/2000/svg" xmlns:xlink="http://www.w3.org/1999/xlink" x="0px" y="0px"
	 viewBox="0 0 1920 1920" style="enable-background:new 0 0 1920 1920;" xml:space="preserve">
<style type="text/css">
	.st0{fill:#252A38;}
	.st1{fill:#1F95F5;}
	.st2{fill:#50A06D;}
	.st3{fill:#FFBE40;}
	.st4{fill:#A159ED;}
	.st5{fill:#F87172;}
	.st6{fill:url(#SVGID_1_);}
	.st7{fill:url(#SVGID_00000065050658951210663590000014279048914859275405_);}
	.st8{fill:url(#SVGID_00000100362462033659552530000007640162370554009734_);}
	.st9{fill:url(#SVGID_00000177471592498093451730000008799492722181811387_);}
	.st10{fill:url(#SVGID_00000138559118078943322960000008610478912693720196_);}
	.st11{fill:url(#SVGID_00000170975922306451029590000008762504119343398026_);}
	.st12{fill:url(#SVGID_00000170246323710956387780000017380487690358084264_);}
	.st13{fill:url(#SVGID_00000129924255648891307090000003636061892883260863_);}
	.st14{fill:url(#SVGID_00000075128768132355541420000006606343293779921084_);}
	.st15{fill:url(#SVGID_00000122722505531785200710000012297611282281038524_);}
	.st16{fill:url(#SVGID_00000023244354141099643790000016866591592624614273_);}
	.st17{fill:#FFFFFF;stroke:#FFBE40;stroke-width:4;stroke-miterlimit:10;}
	.st18{fill:#18A0FB;}
	.st19{fill:#FFFFFF;}
	.st20{fill:none;stroke:#50A06D;stroke-width:2.9623;stroke-linecap:round;stroke-linejoin:round;stroke-miterlimit:10;}
	.st21{fill:none;stroke:#1F95F5;stroke-width:3.1624;stroke-linecap:round;stroke-linejoin:round;stroke-miterlimit:10;}
	.st22{fill:none;stroke:#F87172;stroke-width:3.7083;stroke-linecap:round;stroke-linejoin:round;stroke-miterlimit:10;}
	.st23{fill:none;stroke:#FFBE40;stroke-width:3.4598;stroke-linecap:round;stroke-linejoin:round;stroke-miterlimit:10;}
	.st24{opacity:0.65;}
	.st25{fill:#DCF1FF;}
	.st26{fill:#3B3F4C;}
	.st27{fill:#1668AC;}
	.st28{fill:#BCDFFC;}
	.st29{opacity:0.5;fill:#FFFFFF;}
	.st30{opacity:0.3;fill:#000901;}
	.st31{fill:#CCA241;}
	.st32{fill:#F2AF41;}
	.st33{fill:#DEDEDF;}
	.st34{opacity:0.2;fill:#DEDEDF;}
	.st35{opacity:0.2;}
	.st36{opacity:0.2;fill:#000901;}
	.st37{opacity:0.5;fill:#5466ED;}
	.st38{opacity:0.5;fill:#38704C;}
	.st39{opacity:0.5;fill:#8147BE;}
	.st40{opacity:0.5;fill:#AD4445;}
	.st41{fill:#FFFFFF;stroke:#A159ED;stroke-width:1.702;stroke-miterlimit:10;}
	.st42{fill:#F3E9FF;stroke:#A159ED;stroke-width:1.702;stroke-miterlimit:10;}
	.st43{fill:#F76162;}
	.st44{fill:#E6AB3A;}
</style>
<g>
	<g>
		<path class="st5" d="M1766.8,1113.4c-53,0-104.5-27.5-132.9-76.7l-403.3-698.6c-42.3-73.3-17.2-167.1,56.1-209.5
			c73.4-42.3,167.1-17.2,209.5,56.1l403.3,698.6c42.3,73.3,17.2,167.1-56.1,209.5C1819.2,1106.7,1792.8,1113.4,1766.8,1113.4z"/>
	</g>
	<g>
		<path class="st3" d="M1363.2,1811.9c-26,0-52.4-6.6-76.5-20.6c-73.3-42.3-98.5-136.1-56.1-209.5l403.3-698.6
			c42.3-73.3,136.1-98.5,209.5-56.1c73.3,42.3,98.5,136.1,56.1,209.5l-403.3,698.6C1467.7,1784.4,1416.2,1811.9,1363.2,1811.9z"/>
	</g>
	<g>
		<path class="st1" d="M1363.3,1811.9H556.7c-84.7,0-153.3-68.7-153.3-153.3s68.7-153.3,153.3-153.3h806.6
			c84.7,0,153.3,68.7,153.3,153.3S1448,1811.9,1363.3,1811.9z"/>
	</g>
	<g>
		<path class="st0" d="M556.8,1811.9c-53,0-104.5-27.5-132.9-76.7L20.6,1036.7c-42.3-73.3-17.2-167.1,56.1-209.5
			c73.4-42.3,167.1-17.2,209.5,56.1l403.3,698.6c42.3,73.3,17.2,167.1-56.1,209.5C609.2,1805.3,582.8,1811.9,556.8,1811.9z"/>
	</g>
	<g>
		<path class="st4" d="M153.2,1113.4c-26,0-52.4-6.6-76.5-20.6c-73.3-42.3-98.5-136.1-56.1-209.5l403.3-698.6
			c42.3-73.3,136.1-98.5,209.5-56.1c73.3,42.3,98.5,136.1,56.1,209.5l-403.3,698.6C257.8,1085.9,206.2,1113.4,153.2,1113.4z"/>
	</g>
	<g>
		<path class="st2" d="M1363.3,414.8H556.7c-84.7,0-153.3-68.7-153.3-153.3S472,108.1,556.7,108.1h806.6
			c84.7,0,153.3,68.7,153.3,153.3S1448,414.8,1363.3,414.8z"/>
	</g>
	<g>
		<path class="st5" d="M1656.4,462.5l-256.2,169.7l-169.8-294c-42.4-73.3-17.2-167.1,56.1-209.5c73.4-42.3,167.1-17.2,209.5,56.1
			L1656.4,462.5z"/>
	</g>
</g>
</svg>
