<svg width="84" height="43" viewBox="0 0 84 43" fill="none" xmlns="http://www.w3.org/2000/svg">
<g clip-path="url(#clip0_6438_2181)">
<path d="M9.19141 26.4254V25.7236H73.959V26.4254H9.19141Z" fill="#F47922"/>
<path d="M21.6173 20.9187C21.7505 21.1105 21.8853 21.3073 22.0243 21.5036C22.5415 22.2405 23.0507 22.983 23.5806 23.711C23.7456 23.9372 23.9589 24.1324 24.1645 24.3273C24.4198 24.5696 24.751 24.63 25.0921 24.6412C25.2729 24.6472 25.5007 24.4411 25.5428 24.2429C25.5637 24.1472 25.5747 24.0496 25.5757 23.9517C25.5783 23.0722 25.5783 22.1926 25.5757 21.3129C25.5742 21.2009 25.5634 21.0893 25.5432 20.9791C25.5049 20.7716 25.3697 20.6626 25.1538 20.6585C25.0485 20.6624 24.943 20.6605 24.8379 20.6529C24.7931 20.6469 24.7552 20.5939 24.7143 20.5625C24.7499 20.5301 24.7816 20.4756 24.8215 20.4692C25.2939 20.3945 25.707 20.175 26.1305 19.9783C26.1841 19.9533 26.2771 19.9313 26.3085 19.9574C26.3468 19.9888 26.3468 20.0731 26.3468 20.1347C26.3506 20.3886 26.3468 20.6424 26.3468 20.8966L26.4057 20.9373C26.4517 20.869 26.5019 20.8035 26.5558 20.741C26.8434 20.4423 27.1715 20.2012 27.5823 20.0959C28.5207 19.8555 29.4966 20.3945 29.7221 21.3868C29.7884 21.6922 29.8268 22.0028 29.837 22.3148C29.8557 22.7628 29.842 23.213 29.842 23.6621C29.842 23.792 29.8492 23.9234 29.842 24.0514C29.8236 24.3325 29.9951 24.5908 30.4044 24.6379C30.476 24.6413 30.547 24.6523 30.6161 24.6707C30.6624 24.6868 30.6973 24.7331 30.7371 24.7659C30.6931 24.7999 30.6502 24.8604 30.6042 24.863C30.4959 24.8682 30.386 24.8387 30.2765 24.8365C29.9465 24.8301 29.6164 24.8253 29.2864 24.8297C29.0812 24.8324 28.8764 24.857 28.6712 24.8622C28.6329 24.8622 28.5647 24.8171 28.5651 24.7935C28.5687 24.7705 28.5771 24.7483 28.5898 24.7285C28.6024 24.7087 28.619 24.6916 28.6386 24.6782C28.6746 24.6524 28.729 24.6517 28.7749 24.639C28.9732 24.5837 29.0613 24.4773 29.0617 24.2724C29.0617 23.5008 29.0843 22.7277 29.0544 21.9579C29.0322 21.3801 28.8201 20.8754 28.224 20.6223C27.9593 20.514 27.6682 20.4826 27.3857 20.5318C27.1032 20.5811 26.8413 20.709 26.6316 20.9C26.5453 20.9782 26.4768 21.0732 26.4307 21.1788C26.3845 21.2845 26.3617 21.3985 26.3636 21.5133C26.3655 22.276 26.3655 23.0383 26.3694 23.8009C26.3699 23.9316 26.3781 24.0621 26.3939 24.1918C26.4111 24.3351 26.4877 24.4587 26.6202 24.5143C26.7844 24.5834 26.9647 24.6196 27.1363 24.6674C27.1631 24.6748 27.2002 24.6599 27.2212 24.6726C27.2782 24.7102 27.3331 24.7506 27.3859 24.7935C27.3204 24.8171 27.2519 24.8682 27.1902 24.86C26.5064 24.7797 25.8249 24.8245 25.1404 24.8495C24.7368 24.8641 24.3387 24.9932 23.9267 24.8954C23.416 24.7745 23.0392 24.4751 22.7486 24.0742C22.3482 23.5206 21.9729 22.9498 21.5893 22.3846C21.3696 22.061 21.154 21.7347 20.9384 21.4081C20.892 21.3311 20.8251 21.2678 20.7447 21.2249C20.6644 21.1821 20.5736 21.1613 20.4821 21.1647C20.2279 21.1647 19.9736 21.1647 19.7194 21.1647C19.5241 21.1647 19.4813 21.2083 19.4813 21.395C19.4813 22.1577 19.4866 22.9203 19.4813 23.6826C19.4763 24.2873 19.7493 24.5251 20.3285 24.6397C20.4361 24.661 20.5464 24.6696 20.6521 24.6961C20.6904 24.7054 20.7175 24.7514 20.7497 24.7808C20.7114 24.8096 20.675 24.863 20.6371 24.8637C20.4939 24.8656 20.3508 24.8458 20.2076 24.8421C19.7527 24.8309 19.2975 24.8144 18.8426 24.8171C18.5417 24.8171 18.2412 24.8495 17.9402 24.8674C17.9167 24.8721 17.8925 24.8721 17.869 24.8674C17.8177 24.8454 17.7691 24.8163 17.7197 24.7902C17.7626 24.7499 17.7997 24.6849 17.8499 24.6733C18.0964 24.6155 18.3308 24.53 18.4349 24.2896C18.508 24.108 18.5566 23.9179 18.5792 23.724C18.6053 23.5107 18.6167 23.296 18.6133 23.0812C18.6133 21.4626 18.6133 19.8439 18.6041 18.2253C18.5983 18.0204 18.5615 17.8176 18.495 17.6232C18.4077 17.3529 18.1887 17.2174 17.9039 17.1782C17.8088 17.1695 17.7146 17.1535 17.6221 17.1304C17.5765 17.1166 17.5421 17.0666 17.5026 17.0326C17.5486 17.0053 17.5949 16.9546 17.6412 16.9546C17.7944 16.9546 17.9475 16.9796 18.1007 16.9818C18.4931 16.9878 18.8859 17.0001 19.278 16.9856C20.1386 16.9546 21.0009 16.8788 21.8366 17.1685C22.7938 17.4996 23.1357 18.2817 23.0327 19.1641C22.9454 19.9108 22.4802 20.3931 21.8527 20.7608C21.783 20.8014 21.713 20.8418 21.6441 20.8832C21.6345 20.8873 21.6303 20.8985 21.6173 20.9187ZM19.479 19.2631C19.479 19.6651 19.479 20.0672 19.479 20.4692C19.479 20.7074 19.5636 20.7902 19.8078 20.7921C20.1195 20.7947 20.4315 20.8052 20.7424 20.7899C21.2673 20.7634 21.7294 20.5778 21.9986 20.1202C22.37 19.4889 22.3432 18.8282 21.9553 18.2163C21.4852 17.4776 20.7459 17.2364 19.8879 17.295C19.6199 17.3133 19.51 17.4302 19.4778 17.6952C19.4614 17.8274 19.4778 17.9632 19.4778 18.0976C19.4788 18.4878 19.4792 18.8763 19.479 19.2631Z" fill="#77787A"/>
<path d="M42.3295 20.8997L42.9394 21.7729C43.3689 22.3869 43.7889 23.0077 44.2331 23.6114C44.4247 23.8624 44.6393 24.0959 44.8744 24.3091C45.0734 24.4957 45.3173 24.617 45.6102 24.6152C45.7124 24.6152 45.8204 24.6648 45.9165 24.6454C46.1677 24.595 46.2963 24.4031 46.3017 24.0933C46.3078 23.7428 46.3017 23.3919 46.304 23.041C46.304 22.475 46.304 21.9087 46.304 21.3428C46.3028 21.2263 46.2932 21.1101 46.2753 20.9949C46.2404 20.7649 46.1179 20.6671 45.8759 20.6589C45.7894 20.6556 45.7036 20.641 45.6175 20.6313C45.6137 20.6164 45.6102 20.6011 45.6064 20.5858C45.6344 20.554 45.6671 20.5265 45.7033 20.504C46.1405 20.3151 46.5789 20.1307 47.0176 19.944C47.0354 19.942 47.0534 19.942 47.0712 19.944C47.077 20.0038 47.0885 20.065 47.0885 20.1262C47.0885 21.3939 47.0885 22.6616 47.0885 23.929C47.0895 24.0503 47.1 24.1714 47.1199 24.2911C47.152 24.4916 47.2898 24.6055 47.5303 24.6398C47.6249 24.6532 47.7217 24.6559 47.8151 24.6727C47.899 24.6876 48.0192 24.6775 48.0146 24.7966C48.0146 24.8238 47.8733 24.8683 47.7983 24.866C47.4591 24.8571 47.1202 24.822 46.7814 24.8197C46.5191 24.8197 46.2569 24.8515 45.9942 24.8683C45.9514 24.8709 45.8932 24.8866 45.8679 24.866C45.7369 24.7596 45.6156 24.8436 45.4915 24.8716C44.7289 25.0426 44.086 24.8343 43.6117 24.237C43.2227 23.7465 42.8812 23.2198 42.5262 22.7039C42.2326 22.2734 41.9481 21.8382 41.6621 21.4078C41.6143 21.329 41.5453 21.2645 41.4625 21.2213C41.3798 21.178 41.2865 21.1577 41.1927 21.1625C40.9527 21.1651 40.713 21.1625 40.4729 21.1625C40.2402 21.1625 40.2049 21.1998 40.2049 21.4201C40.2049 22.145 40.2203 22.8704 40.2015 23.5949C40.182 24.3486 40.53 24.5707 41.2352 24.6667C41.278 24.6668 41.3203 24.6743 41.3604 24.6887C41.4027 24.7181 41.4413 24.7524 41.4753 24.7906C41.4293 24.8164 41.3834 24.863 41.3371 24.8653C41.1943 24.8653 41.0511 24.8447 40.9079 24.8421C40.3187 24.8317 39.7294 24.8216 39.1402 24.8194C38.9871 24.8194 38.8339 24.8492 38.6838 24.8649C38.6561 24.8722 38.627 24.8731 38.5988 24.8675C38.5454 24.8416 38.4935 24.8127 38.4434 24.7809C38.4817 24.7403 38.5244 24.7038 38.5709 24.6723C38.6153 24.6488 38.6723 24.6488 38.724 24.635C39.0828 24.5274 39.2413 24.2654 39.2796 23.9257C39.3147 23.6479 39.3347 23.3686 39.3393 23.0887C39.3426 21.4656 39.3403 19.8425 39.3324 18.2194C39.3287 18.0472 39.303 17.8762 39.2558 17.7102C39.1701 17.3914 38.9469 17.2171 38.6095 17.1797C38.5189 17.1718 38.4291 17.1555 38.3415 17.1312C38.2987 17.1182 38.265 17.0726 38.2267 17.042C38.2711 17.0125 38.3155 16.958 38.3599 16.958C38.5173 16.958 38.6743 16.9834 38.8316 16.986C39.2145 16.9931 39.5973 16.9968 39.9802 16.9942C40.4722 16.9909 40.9645 16.9722 41.4569 16.9744C41.8551 16.9762 42.2495 17.0506 42.6197 17.1936C43.4359 17.5056 43.7487 18.0962 43.7744 18.8238C43.8062 19.7104 43.344 20.3151 42.5975 20.7522C42.5148 20.7959 42.4321 20.8415 42.3295 20.8997ZM40.2034 19.2695C40.2034 19.6715 40.2034 20.0736 40.2034 20.4756C40.2034 20.7056 40.2888 20.7899 40.5235 20.7926C40.8397 20.7959 41.1571 20.809 41.4722 20.7896C42.0848 20.7522 42.5825 20.5066 42.8241 19.931C43.0657 19.3553 43.0267 18.7625 42.6867 18.2246C42.2058 17.4642 41.3784 17.2298 40.6073 17.2988C40.3393 17.3231 40.2363 17.4332 40.2023 17.7039C40.1862 17.8315 40.2023 17.9629 40.2023 18.0925C40.203 18.4847 40.2034 18.877 40.2034 19.2695Z" fill="#F47922"/>
<path d="M13.1429 20.9669C12.5303 20.9669 11.9163 20.9669 11.3009 20.9669C10.9766 20.9669 10.902 21.0416 10.9016 21.3552C10.9016 22.1174 10.8978 22.8801 10.9043 23.6424C10.9078 23.7916 10.9295 23.9398 10.969 24.084C11.0528 24.4054 11.3021 24.5469 11.6126 24.6096C11.7106 24.6294 11.8132 24.6335 11.907 24.6649C11.9537 24.6805 11.9836 24.7418 12.0219 24.7824C11.9725 24.8108 11.925 24.8593 11.8741 24.8635C11.7849 24.8702 11.6937 24.8433 11.6034 24.8418C11.0574 24.831 10.5111 24.8183 9.96512 24.8172C9.77368 24.8172 9.58417 24.8478 9.39388 24.8638C9.36097 24.8709 9.32687 24.8709 9.29395 24.8638C9.24283 24.8394 9.19357 24.8115 9.14655 24.7802C9.18484 24.7429 9.22312 24.6951 9.2683 24.6764C9.34889 24.6469 9.43262 24.6262 9.51793 24.6148C9.75875 24.5775 9.89199 24.4241 9.93908 24.2087C9.99139 23.9956 10.0209 23.7778 10.0271 23.5588C10.0343 21.702 10.0357 19.8449 10.0314 17.9876C10.0314 17.465 9.76679 17.1929 9.19326 17.0936C9.10903 17.079 8.97618 17.0936 9.00183 16.9648C9.02595 16.8461 9.14502 16.8953 9.23155 16.9054C9.94567 16.9854 10.6659 17.0005 11.3829 16.9506C11.4543 16.9425 11.5264 16.9433 11.5976 16.9528C11.6359 16.9599 11.6685 17.004 11.7033 17.0312C11.6742 17.0629 11.6509 17.1059 11.6145 17.1242C11.544 17.1529 11.4714 17.1766 11.3974 17.1951C11.0655 17.297 10.9066 17.5311 10.9035 17.8573C10.8962 18.6666 10.8985 19.476 10.9035 20.2838C10.9035 20.4831 10.9801 20.5503 11.183 20.5638C11.2546 20.5686 11.327 20.5664 11.3986 20.5664C12.5837 20.5664 13.7685 20.5664 14.9531 20.5664C15.2322 20.5664 15.2934 20.507 15.2938 20.2386C15.2938 19.579 15.2976 18.9194 15.2915 18.2601C15.2876 18.0924 15.269 17.9253 15.236 17.7606C15.1801 17.462 14.9883 17.2754 14.6946 17.1813C14.6311 17.1615 14.5614 17.1552 14.5032 17.1268C14.4649 17.1074 14.4389 17.0603 14.4075 17.0252C14.4458 16.9991 14.486 16.9506 14.525 16.9506C14.6973 16.9506 14.8696 16.9655 15.0411 16.9767C15.6154 17.014 16.1897 17.0282 16.7617 16.9539C16.8188 16.9468 16.8835 16.9946 16.9447 17.0167C16.9064 17.0592 16.8724 17.1286 16.8237 17.141C16.3115 17.2839 16.1426 17.493 16.1419 18.0175C16.1403 19.1541 16.1403 20.2908 16.1419 21.4276C16.1419 22.1152 16.1419 22.8028 16.1419 23.4905C16.1416 23.6498 16.1538 23.8089 16.1786 23.9664C16.2521 24.4144 16.4727 24.6118 16.9424 24.6649C16.952 24.6643 16.9616 24.6643 16.9711 24.6649C17.0515 24.679 17.1764 24.6619 17.1691 24.7739C17.1607 24.8967 17.0336 24.8653 16.9482 24.8631C16.3643 24.8485 15.7812 24.8257 15.1973 24.816C15.0266 24.8134 14.8551 24.8467 14.6835 24.8627C14.6554 24.8689 14.6263 24.8689 14.5982 24.8627C14.5545 24.8419 14.5124 24.8181 14.4722 24.7914C14.5051 24.7571 14.5369 24.722 14.5714 24.6895C14.5823 24.6811 14.5957 24.6761 14.6096 24.6753C15.0396 24.641 15.2647 24.2624 15.2701 23.8391C15.2804 22.9977 15.2858 22.1563 15.2927 21.3148C15.293 21.2728 15.29 21.2307 15.2839 21.189C15.2525 20.9949 15.218 20.9651 15.0116 20.9651C14.3903 20.9662 13.7666 20.9673 13.1429 20.9669Z" fill="#77787A"/>
<path d="M49.6824 20.7868C50.0974 20.3142 50.6012 20.0402 51.2353 20.0364C51.8934 20.032 52.349 20.3482 52.6595 20.9144C52.712 20.857 52.7468 20.8204 52.7797 20.7819C53.1752 20.3231 53.6603 20.0387 54.2924 20.0376C55.1501 20.0376 55.7818 20.5751 55.8924 21.4057C55.9144 21.5722 55.9259 21.7399 55.9269 21.9078C55.9307 22.5017 55.9269 23.096 55.9299 23.6899C55.9287 23.8161 55.9396 23.9421 55.9625 24.0662C56.0352 24.4253 56.2569 24.6161 56.6421 24.6658C56.6513 24.6658 56.6612 24.6658 56.6708 24.6676C56.7497 24.6755 56.845 24.6896 56.8239 24.786C56.8151 24.8233 56.7003 24.867 56.6402 24.8606C56.0459 24.7878 55.4446 24.7878 54.8503 24.8606C54.7905 24.8677 54.7224 24.811 54.6588 24.7837C54.701 24.7408 54.7354 24.6766 54.7863 24.659C55.0697 24.5616 55.1826 24.382 55.1757 24.0834C55.1592 23.3633 55.1834 22.6425 55.1631 21.9227C55.1542 21.6713 55.1011 21.4232 55.0061 21.1892C54.7381 20.5307 54.0106 20.2739 53.3491 20.5792C53.2974 20.6031 53.248 20.6322 53.1982 20.6606C52.8575 20.8555 52.6798 21.122 52.7916 21.5222C52.8094 21.5996 52.8169 21.6789 52.8138 21.7581C52.8153 22.4644 52.8153 23.1707 52.8138 23.877C52.8115 23.9425 52.8142 24.0082 52.8219 24.0733C52.8843 24.4757 53.0692 24.6381 53.4903 24.668C53.5776 24.6743 53.709 24.662 53.6994 24.78C53.689 24.9073 53.555 24.8733 53.4666 24.8629C52.8772 24.7882 52.2803 24.7882 51.6909 24.8629C51.6635 24.8713 51.6342 24.8722 51.6063 24.8655C51.5606 24.8485 51.5214 24.8184 51.4937 24.7792C51.4845 24.7609 51.532 24.6994 51.5703 24.6796C51.6488 24.6355 51.7357 24.6049 51.8184 24.5694C51.8691 24.5473 51.9128 24.5122 51.9446 24.4677C51.9765 24.4233 51.9953 24.3712 51.9991 24.3171C52.0141 24.2155 52.0228 24.1132 52.0251 24.0106C52.0274 23.2573 52.0309 22.5043 52.0228 21.751C52.0182 21.5879 51.9916 21.4261 51.9436 21.2698C51.8031 20.7875 51.3899 20.4964 50.8758 20.4885C50.597 20.4844 50.3317 20.5195 50.089 20.6621C49.803 20.8301 49.6514 21.0765 49.6502 21.402C49.6474 22.2392 49.6474 23.0765 49.6502 23.9139C49.6502 24.3772 49.8692 24.6068 50.3428 24.6665C50.4343 24.6781 50.5725 24.6706 50.5545 24.7945C50.5373 24.9114 50.4129 24.8573 50.3248 24.8498C49.7088 24.7968 49.0924 24.7811 48.4763 24.8591C48.4273 24.8651 48.3722 24.8218 48.3198 24.8035C48.3534 24.7595 48.3799 24.6848 48.4216 24.6758C48.801 24.5933 48.8638 24.3193 48.8642 24.0039C48.8642 23.2132 48.8642 22.4226 48.8642 21.6323C48.8642 21.4412 48.8523 21.2497 48.837 21.0589C48.814 20.7771 48.68 20.6599 48.3921 20.6576C48.3108 20.6621 48.2293 20.6603 48.1482 20.6524C48.1099 20.6464 48.0763 20.6024 48.0406 20.5755C48.0663 20.5441 48.09 20.5113 48.1172 20.4829C48.1323 20.4711 48.1502 20.4632 48.1693 20.4601C48.6195 20.353 49.0369 20.1686 49.4431 19.9543C49.6104 19.8662 49.6464 19.8931 49.6483 20.0861C49.6483 20.3015 49.6506 20.5165 49.6525 20.7315C49.6514 20.7397 49.6602 20.7476 49.6824 20.7868Z" fill="#F47922"/>
<path d="M58.2241 20.7657C58.3152 20.703 58.3772 20.6627 58.4366 20.6197C58.7578 20.3879 59.0905 20.1785 59.4887 20.0923C60.6449 19.841 61.671 20.4566 61.939 21.5881C62.1526 22.4881 62.0156 23.334 61.4214 24.0795C60.9493 24.6719 60.326 24.9754 59.553 24.9497C59.017 24.9314 58.5349 24.7469 58.105 24.433C57.9136 24.2926 57.8753 24.3031 57.7543 24.5047C57.6819 24.6256 57.6134 24.7488 57.5318 24.8634C57.5043 24.9007 57.4415 24.9161 57.3948 24.9411C57.373 24.8881 57.3217 24.8291 57.3335 24.7832C57.4626 24.3038 57.4101 23.8156 57.4101 23.3314C57.4155 21.5448 57.4155 19.758 57.4101 17.9712C57.4098 17.822 57.3928 17.6733 57.3596 17.5277C57.2956 17.2496 57.0808 17.1133 56.7918 17.1462C56.7347 17.1536 56.6769 17.1536 56.6199 17.1462C56.5843 17.1402 56.5287 17.1118 56.5261 17.0883C56.5274 17.0687 56.5332 17.0497 56.5431 17.0327C56.5529 17.0156 56.5666 17.001 56.5831 16.9897C56.6246 16.9667 56.6702 16.9515 56.7175 16.9449C57.1427 16.851 57.5525 16.7003 57.9354 16.497C58.1682 16.3712 58.2222 16.4025 58.2222 16.668C58.2222 17.9685 58.2222 19.2689 58.2222 20.569L58.2241 20.7657ZM59.6173 24.7257C60.3627 24.7257 60.7961 24.4998 61.0944 24.0436C61.403 23.571 61.4681 23.0469 61.4175 22.4982C61.354 21.8065 61.0412 21.2402 60.5136 20.7877C59.893 20.2561 59.0587 20.2729 58.4542 20.812C58.38 20.875 58.321 20.9532 58.2813 21.0409C58.2417 21.1286 58.2222 21.2238 58.2244 21.3197C58.2244 21.9132 58.2244 22.5069 58.2244 23.1007C58.2244 23.1474 58.2244 23.194 58.2199 23.2407C58.1957 23.583 58.2581 23.9033 58.5066 24.1601C58.8577 24.5211 59.2884 24.7201 59.6173 24.7257Z" fill="#F47922"/>
<path d="M69.6679 20.9329C69.7154 20.8656 69.7665 20.8008 69.821 20.7388C70.1089 20.4424 70.4367 20.1998 70.8483 20.0949C71.7763 19.8582 72.7469 20.3816 72.9842 21.3734C73.0525 21.6832 73.0909 21.9985 73.0991 22.3153C73.1182 22.7632 73.1041 23.2134 73.1041 23.6625C73.1041 23.7876 73.111 23.913 73.1041 24.0358C73.0819 24.3692 73.2993 24.5991 73.6818 24.6368C73.7487 24.639 73.8149 24.6495 73.879 24.6682C73.9249 24.6853 73.9598 24.7313 73.9992 24.7641C73.9552 24.7981 73.9123 24.8586 73.8664 24.8608C73.758 24.8664 73.6481 24.8369 73.5386 24.835C73.204 24.8298 72.869 24.8265 72.5344 24.8309C72.3341 24.8335 72.1339 24.8574 71.9333 24.8601C71.895 24.8601 71.8567 24.8074 71.8154 24.779C71.8426 24.7436 71.8625 24.6984 71.8981 24.676C71.9337 24.6536 71.9888 24.6495 72.0347 24.6368C72.2338 24.5816 72.3227 24.4759 72.3234 24.2717C72.3234 23.5001 72.3456 22.7274 72.3162 21.9573C72.2936 21.3794 72.0822 20.8747 71.4865 20.6212C71.222 20.5125 70.9309 20.4808 70.6484 20.5298C70.3658 20.5789 70.1038 20.7067 69.8942 20.8978C69.8077 20.9759 69.7392 21.0708 69.693 21.1764C69.6468 21.282 69.6241 21.396 69.6261 21.5108C69.6261 22.2873 69.6284 23.0637 69.6319 23.8406C69.6328 23.9571 69.6409 24.0736 69.656 24.1892C69.6744 24.3326 69.7498 24.4561 69.8823 24.5118C70.0465 24.5808 70.2269 24.617 70.3984 24.6652C70.4252 24.6727 70.4623 24.6573 70.4834 24.67C70.5416 24.7074 70.594 24.7499 70.6488 24.7906C70.5837 24.8145 70.5152 24.8653 70.4539 24.8589C69.7647 24.7776 69.0783 24.7917 68.3903 24.8589C68.3416 24.8634 68.2884 24.8216 68.2371 24.8011C68.2682 24.7547 68.3021 24.7102 68.3386 24.6678C68.3621 24.6518 68.3889 24.6407 68.4171 24.6353C68.705 24.5319 68.8382 24.321 68.8382 24.0313C68.8413 23.0911 68.8413 22.1508 68.8382 21.2103C68.836 21.122 68.8232 21.0343 68.7999 20.949C68.7513 20.7549 68.6246 20.6619 68.4151 20.6582C68.3146 20.6621 68.2139 20.6606 68.1135 20.6537C68.066 20.6473 68.0239 20.6014 67.9791 20.5734C68.0151 20.5361 68.0468 20.4745 68.0878 20.4682C68.5606 20.3935 68.9734 20.1733 69.3964 19.9765C69.4481 19.9526 69.5496 19.9272 69.5626 19.9459C69.5962 20.0035 69.6129 20.069 69.6108 20.1352C69.6154 20.389 69.6127 20.6429 69.6127 20.8963L69.6679 20.9329Z" fill="#F47922"/>
<path d="M66.2803 24.1082C66.1153 24.2575 65.9828 24.3941 65.8347 24.5114C65.2397 24.9813 64.5712 25.0799 63.866 24.8141C63.2691 24.5901 62.9758 24.1048 62.9199 23.5128C62.8698 22.9749 62.89 22.4302 62.8839 21.8882C62.8797 21.5235 62.8839 21.1584 62.8839 20.7937C62.8839 20.4491 62.7411 20.2983 62.3896 20.2673C62.3753 20.2687 62.3609 20.2679 62.3468 20.2651C62.287 20.2382 62.2285 20.2087 62.1695 20.1803C62.2231 20.1501 62.2736 20.1008 62.3303 20.093C62.5191 20.0665 62.7109 20.0601 62.9004 20.0362C63.075 20.0142 63.2492 19.9843 63.4218 19.9496C63.6133 19.9123 63.683 19.953 63.6925 20.1404C63.7006 20.299 63.6967 20.4584 63.6925 20.6175C63.6891 20.7574 63.6738 20.8967 63.6711 21.0367C63.6588 21.6672 63.6385 22.2984 63.6439 22.9289C63.6482 23.1947 63.6811 23.4593 63.7419 23.7185C63.8399 24.1474 64.3377 24.545 64.7921 24.5808C65.2983 24.6204 65.7248 24.4561 66.0579 24.0787C66.1863 23.9374 66.2562 23.7546 66.2539 23.5658C66.2508 22.6396 66.2539 21.7135 66.252 20.7873C66.252 20.4043 66.1199 20.2744 65.7286 20.2647C65.7191 20.2666 65.7094 20.2666 65.6999 20.2647C65.6448 20.2374 65.5904 20.2087 65.536 20.1803C65.5889 20.143 65.6382 20.0806 65.6961 20.0717C65.8465 20.0478 66.0024 20.056 66.1532 20.0344C66.3887 20.003 66.623 19.9631 66.8561 19.9183C67.0016 19.8903 67.0476 19.9156 67.0614 20.0594C67.0652 20.1012 67.0614 20.1434 67.0614 20.1855C67.0614 21.4299 67.0614 22.6742 67.0614 23.9186C67.0622 24.0305 67.0731 24.1422 67.0939 24.2523C67.1322 24.452 67.2543 24.5487 67.4641 24.5547C67.5503 24.5573 67.6376 24.5483 67.7226 24.5588C67.7685 24.5644 67.8102 24.6002 67.8539 24.6222C67.8156 24.6566 67.7773 24.7156 67.736 24.7215C67.5327 24.7503 67.3274 24.7626 67.1234 24.7842C66.9319 24.804 66.7405 24.8171 66.556 24.8548C66.425 24.8813 66.3576 24.838 66.3331 24.7256C66.3082 24.6023 66.2906 24.4777 66.2803 24.3523C66.2742 24.2773 66.2803 24.1997 66.2803 24.1082Z" fill="#F47922"/>
<path d="M31.5706 21.9834C31.5369 22.2928 31.5674 22.6056 31.6602 22.9032C31.826 23.4718 32.1376 23.9466 32.6763 24.2423C33.2602 24.5637 33.8479 24.4939 34.416 24.1904C34.5799 24.1038 34.7304 23.9936 34.89 23.8988C34.9268 23.8849 34.9655 23.8768 35.0049 23.8749C35.0091 23.9149 35.0259 23.9589 35.0145 23.994C34.9974 24.0428 34.9691 24.0871 34.9318 24.1236C34.4861 24.5588 33.9624 24.8422 33.3283 24.9273C32.0032 25.1046 31.1249 24.1486 30.8849 23.2347C30.6 22.1492 30.9967 21.011 31.8891 20.3946C32.8463 19.7328 34.101 20.0019 34.6691 21.0024C34.7955 21.2264 34.8843 21.4698 34.9727 21.7117C35.0321 21.874 34.9632 21.964 34.7859 21.9756C34.6327 21.9857 34.4796 21.9793 34.3265 21.9793C33.4441 21.9793 32.5616 21.9786 31.679 21.9771C31.6506 21.9774 31.6223 21.9804 31.5706 21.9834ZM31.6158 21.6519C31.6523 21.6579 31.6891 21.6617 31.726 21.6635C32.3976 21.6635 33.0691 21.6635 33.7407 21.6635C33.7884 21.6625 33.8359 21.6558 33.882 21.6437C34.0734 21.597 34.1193 21.5187 34.0864 21.3272C34.0414 21.0767 33.9181 20.8459 33.7334 20.6664C33.4214 20.3484 33.0553 20.1684 32.5883 20.2558C31.9462 20.3805 31.6211 21.1424 31.6158 21.6519Z" fill="#77787A"/>
<path d="M38.3978 20.013C38.3903 20.0679 38.3791 20.1223 38.3645 20.1758C38.3347 20.2594 38.2987 20.3408 38.2658 20.4237C38.1509 20.7048 38.139 20.7137 37.8228 20.7137C37.4583 20.7137 37.0953 20.7171 36.7297 20.7115C36.6202 20.7115 36.5766 20.7384 36.5766 20.8518C36.5804 21.8012 36.5766 22.7505 36.5804 23.6994C36.5822 23.8116 36.595 23.9233 36.6187 24.0331C36.6864 24.3646 36.9598 24.5666 37.3327 24.5852C37.6308 24.6052 37.9283 24.5391 38.188 24.3952C38.2557 24.3611 38.3252 24.3305 38.3963 24.3038C38.453 24.4344 38.371 24.4975 38.2971 24.5501C38.0285 24.7484 37.7121 24.876 37.3783 24.9205C37.1657 24.9477 36.9502 24.9448 36.7385 24.9119C36.1608 24.8141 35.8196 24.4516 35.8024 23.792C35.7771 22.8479 35.7932 21.9031 35.7913 20.9586C35.7913 20.9119 35.7894 20.8649 35.7913 20.8182C35.7913 20.7436 35.758 20.7096 35.6764 20.7119C35.5375 20.716 35.3981 20.7175 35.2595 20.7119C35.2124 20.7096 35.1446 20.6872 35.1274 20.6544C35.1102 20.6215 35.1439 20.5558 35.1753 20.5237C35.2683 20.4296 35.3713 20.3449 35.4705 20.2572C35.8212 19.9515 36.1266 19.5997 36.3778 19.2119C36.42 19.1459 36.4946 19.0999 36.5543 19.0439C36.5723 19.1212 36.6053 19.1985 36.6049 19.2754C36.6049 19.5274 36.5942 19.7793 36.5815 20.031C36.5762 20.1344 36.5991 20.1833 36.7213 20.1803C37.1191 20.1736 37.5173 20.1836 37.915 20.1732C38.0249 20.1702 38.134 20.1191 38.242 20.0862C38.2954 20.0648 38.3474 20.0404 38.3978 20.013Z" fill="#77787A"/>
<path d="M46.2109 18.2479C46.2196 18.2007 46.2372 18.1555 46.263 18.1146C46.3633 17.985 46.4735 17.863 46.5927 17.7495C46.7075 17.6469 46.8055 17.6544 46.9012 17.7716C47.0028 17.9066 47.0974 18.0465 47.1846 18.1908C47.195 18.2117 47.2003 18.2347 47.2003 18.258C47.2125 18.4196 46.876 18.834 46.7136 18.8553C46.6949 18.8575 46.6759 18.856 46.6577 18.8508C46.5034 18.8146 46.2144 18.4446 46.2109 18.2479Z" fill="#F47922"/>
</g>
<defs>
<clipPath id="clip0_6438_2181">
<rect width="65" height="10" fill="white" transform="translate(9 16.4258)"/>
</clipPath>
</defs>
</svg>
