<svg width="28" height="28" viewBox="0 0 28 28" fill="none" xmlns="http://www.w3.org/2000/svg">
<g clip-path="url(#clip0_63_82872)">
<path d="M13.3614 10.9362C13.3584 10.9602 13.3584 10.9875 13.3584 11.0143C13.3584 11.1183 13.3792 11.2183 13.4167 11.3103L13.4502 11.3793L13.5827 11.7184L14.2711 13.4746L14.8715 15.0082C15.0428 15.3178 15.3171 15.5608 15.6479 15.6904L15.7507 15.7281C15.7547 15.7294 15.7615 15.7294 15.767 15.7309L17.4126 16.2968V16.298L18.0418 16.5141L18.0848 16.5286C18.0863 16.5286 18.0888 16.5301 18.0903 16.5301C18.2143 16.5613 18.3358 16.6033 18.4519 16.6546C18.7202 16.7704 18.9635 16.9354 19.1713 17.1367C19.255 17.2167 19.3321 17.303 19.4033 17.395C19.464 17.4723 19.5195 17.5535 19.5694 17.6381C19.7889 18.0027 19.915 18.4313 19.915 18.8876C19.915 18.9691 19.911 19.0479 19.9027 19.1279C19.9 19.1632 19.8957 19.1972 19.8905 19.231V19.2337C19.8849 19.2695 19.8782 19.3065 19.8714 19.3427C19.8644 19.378 19.8579 19.413 19.8499 19.448C19.8487 19.452 19.8472 19.4563 19.8457 19.4603C19.8382 19.4958 19.8287 19.5308 19.8189 19.566C19.8102 19.5993 19.7992 19.6336 19.7869 19.6658C19.7761 19.7011 19.7635 19.7358 19.7492 19.7698C19.7369 19.8048 19.7224 19.8404 19.7062 19.8739C19.6616 19.9766 19.6086 20.0754 19.5491 20.1697C19.4724 20.2935 19.3848 20.4103 19.2873 20.5185C20.0595 19.6883 20.5729 18.6163 20.7006 17.43C20.7221 17.2355 20.7332 17.0382 20.7332 16.8396C20.7332 16.7129 20.7276 16.5873 20.7194 16.4613C20.6221 15.0387 19.9745 13.7664 18.986 12.8584C18.7134 12.6061 18.4156 12.3816 18.0953 12.191L17.4901 11.8817L14.4237 10.3081C14.3294 10.2677 14.2279 10.2469 14.1253 10.2471C13.7282 10.2471 13.4004 10.5499 13.3614 10.9362Z" fill="#7F7F7F"/>
<path d="M13.3614 10.9362C13.3584 10.9602 13.3584 10.9875 13.3584 11.0143C13.3584 11.1183 13.3792 11.2183 13.4167 11.3103L13.4502 11.3793L13.5827 11.7184L14.2711 13.4746L14.8715 15.0082C15.0428 15.3178 15.3171 15.5608 15.6479 15.6904L15.7507 15.7281C15.7547 15.7294 15.7615 15.7294 15.767 15.7309L17.4126 16.2968V16.298L18.0418 16.5141L18.0848 16.5286C18.0863 16.5286 18.0888 16.5301 18.0903 16.5301C18.2143 16.5613 18.3358 16.6033 18.4519 16.6546C18.7202 16.7704 18.9635 16.9354 19.1713 17.1367C19.255 17.2167 19.3321 17.303 19.4033 17.395C19.464 17.4723 19.5195 17.5535 19.5694 17.6381C19.7889 18.0027 19.915 18.4313 19.915 18.8876C19.915 18.9691 19.911 19.0479 19.9027 19.1279C19.9 19.1632 19.8957 19.1972 19.8905 19.231V19.2337C19.8849 19.2695 19.8782 19.3065 19.8714 19.3427C19.8644 19.378 19.8579 19.413 19.8499 19.448C19.8487 19.452 19.8472 19.4563 19.8457 19.4603C19.8382 19.4958 19.8287 19.5308 19.8189 19.566C19.8102 19.5993 19.7992 19.6336 19.7869 19.6658C19.7761 19.7011 19.7635 19.7358 19.7492 19.7698C19.7369 19.8048 19.7224 19.8404 19.7062 19.8739C19.6616 19.9766 19.6086 20.0754 19.5491 20.1697C19.4724 20.2935 19.3848 20.4103 19.2873 20.5185C20.0595 19.6883 20.5729 18.6163 20.7006 17.43C20.7221 17.2355 20.7332 17.0382 20.7332 16.8396C20.7332 16.7129 20.7276 16.5873 20.7194 16.4613C20.6221 15.0387 19.9745 13.7664 18.986 12.8584C18.7134 12.6061 18.4156 12.3816 18.0953 12.191L17.4901 11.8817L14.4237 10.3081C14.3294 10.2677 14.2279 10.2469 14.1253 10.2471C13.7282 10.2471 13.4004 10.5499 13.3614 10.9362Z" fill="url(#paint0_linear_63_82872)"/>
<path d="M7.90192 4C7.46557 4.00775 7.11523 4.36484 7.11523 4.80144V18.7813C7.11698 18.8788 7.12249 18.9751 7.12949 19.0728C7.13574 19.1243 7.14249 19.1779 7.15199 19.2299C7.35129 20.3519 8.32752 21.2033 9.5063 21.2033C9.91965 21.2033 10.3072 21.0981 10.6463 20.915C10.6483 20.9135 10.6518 20.9115 10.6536 20.9115L10.7756 20.8378L11.2702 20.5467L11.8994 20.1733L11.9009 7.75214C11.9009 6.9267 11.4878 6.19902 10.8554 5.76667C10.8404 5.75767 10.8259 5.74817 10.8126 5.73741L8.36453 4.13653C8.2405 4.05451 8.09097 4.003 7.93068 4H7.90192Z" fill="#7F7F7F"/>
<path d="M7.90192 4C7.46557 4.00775 7.11523 4.36484 7.11523 4.80144V18.7813C7.11698 18.8788 7.12249 18.9751 7.12949 19.0728C7.13574 19.1243 7.14249 19.1779 7.15199 19.2299C7.35129 20.3519 8.32752 21.2033 9.5063 21.2033C9.91965 21.2033 10.3072 21.0981 10.6463 20.915C10.6483 20.9135 10.6518 20.9115 10.6536 20.9115L10.7756 20.8378L11.2702 20.5467L11.8994 20.1733L11.9009 7.75214C11.9009 6.9267 11.4878 6.19902 10.8554 5.76667C10.8404 5.75767 10.8259 5.74817 10.8126 5.73741L8.36453 4.13653C8.2405 4.05451 8.09097 4.003 7.93068 4H7.90192Z" fill="url(#paint1_linear_63_82872)"/>
<path d="M17.6088 16.7717L11.9802 20.108L11.8992 20.1568V20.1745L11.2701 20.5471L10.7757 20.8389L10.6544 20.9122L10.6462 20.9162C10.3078 21.1 9.92 21.204 9.5069 21.204C8.32837 21.204 7.35089 20.3531 7.15234 19.2305C7.24662 20.0517 7.52643 20.8162 7.94853 21.4821C8.81774 22.8542 10.2876 23.8086 11.988 23.9744H13.0277C13.9475 23.8784 14.7154 23.5101 15.5226 23.0127L16.7639 22.2535C17.323 21.8952 18.8406 21.0137 19.2877 20.5191C19.385 20.4108 19.4728 20.2948 19.5495 20.1705C19.6091 20.076 19.6621 19.9772 19.7066 19.8744C19.7216 19.8394 19.7358 19.8054 19.7496 19.7707C19.7626 19.7362 19.7748 19.7014 19.7873 19.6661C19.8106 19.5986 19.8291 19.5309 19.8469 19.4611C19.8559 19.4213 19.8641 19.3821 19.8724 19.3431C19.8994 19.1958 19.9141 19.0445 19.9141 18.8877C19.9141 18.4314 19.7881 18.0028 19.5698 17.6387C19.5198 17.5536 19.4648 17.4724 19.4038 17.3956C19.3325 17.3031 19.2555 17.2173 19.1717 17.1373C18.9639 16.936 18.7213 16.771 18.4523 16.6549C18.3363 16.6037 18.2152 16.5614 18.0907 16.5307C18.0892 16.5307 18.0867 16.5292 18.0852 16.5292L18.0422 16.5146L17.6088 16.7717Z" fill="#7F7F7F"/>
<path d="M17.6088 16.7717L11.9802 20.108L11.8992 20.1568V20.1745L11.2701 20.5471L10.7757 20.8389L10.6544 20.9122L10.6462 20.9162C10.3078 21.1 9.92 21.204 9.5069 21.204C8.32837 21.204 7.35089 20.3531 7.15234 19.2305C7.24662 20.0517 7.52643 20.8162 7.94853 21.4821C8.81774 22.8542 10.2876 23.8086 11.988 23.9744H13.0277C13.9475 23.8784 14.7154 23.5101 15.5226 23.0127L16.7639 22.2535C17.323 21.8952 18.8406 21.0137 19.2877 20.5191C19.385 20.4108 19.4728 20.2948 19.5495 20.1705C19.6091 20.076 19.6621 19.9772 19.7066 19.8744C19.7216 19.8394 19.7358 19.8054 19.7496 19.7707C19.7626 19.7362 19.7748 19.7014 19.7873 19.6661C19.8106 19.5986 19.8291 19.5309 19.8469 19.4611C19.8559 19.4213 19.8641 19.3821 19.8724 19.3431C19.8994 19.1958 19.9141 19.0445 19.9141 18.8877C19.9141 18.4314 19.7881 18.0028 19.5698 17.6387C19.5198 17.5536 19.4648 17.4724 19.4038 17.3956C19.3325 17.3031 19.2555 17.2173 19.1717 17.1373C18.9639 16.936 18.7213 16.771 18.4523 16.6549C18.3363 16.6037 18.2152 16.5614 18.0907 16.5307C18.0892 16.5307 18.0867 16.5292 18.0852 16.5292L18.0422 16.5146L17.6088 16.7717Z" fill="url(#paint2_linear_63_82872)"/>
<path opacity="0.15" d="M19.9141 18.8877C19.9141 19.0445 19.8994 19.196 19.8721 19.3433C19.8641 19.3823 19.8559 19.4213 19.8466 19.4608C19.8291 19.5309 19.8106 19.5986 19.7873 19.6664C19.7751 19.7014 19.7626 19.7364 19.7496 19.7704C19.7361 19.8054 19.7216 19.8394 19.7063 19.8744C19.6617 19.9769 19.6094 20.0758 19.5498 20.1703C19.4731 20.2941 19.3854 20.4108 19.2877 20.5188C18.8406 21.0137 17.323 21.8952 16.7639 22.2535L15.5226 23.0127C14.6126 23.5733 13.7529 23.9702 12.6687 23.9974C12.6174 23.9989 12.5671 24.0002 12.5174 24.0002C12.4474 24.0002 12.3783 23.9989 12.3091 23.9962C10.4731 23.9262 8.872 22.9397 7.94853 21.4821C7.51642 20.8014 7.24421 20.0316 7.15234 19.2305C7.35089 20.3531 8.32837 21.204 9.5069 21.204C9.92 21.204 10.3078 21.0997 10.6462 20.9162L10.6544 20.9119L10.7757 20.8389L11.2701 20.5471L11.8992 20.1745V20.1568L11.9802 20.108L17.6088 16.7715L18.0422 16.5146L18.0852 16.5292C18.0864 16.5292 18.0892 16.5307 18.0907 16.5307C18.2152 16.5614 18.3365 16.6037 18.4523 16.6549C18.7213 16.771 18.9637 16.936 19.1717 17.1373C19.2554 17.2174 19.333 17.3038 19.4038 17.3956C19.4648 17.4724 19.5198 17.5536 19.5698 17.6387C19.7881 18.0028 19.9141 18.4314 19.9141 18.8877Z" fill="#7F7F7F"/>
<path opacity="0.15" d="M19.9141 18.8877C19.9141 19.0445 19.8994 19.196 19.8721 19.3433C19.8641 19.3823 19.8559 19.4213 19.8466 19.4608C19.8291 19.5309 19.8106 19.5986 19.7873 19.6664C19.7751 19.7014 19.7626 19.7364 19.7496 19.7704C19.7361 19.8054 19.7216 19.8394 19.7063 19.8744C19.6617 19.9769 19.6094 20.0758 19.5498 20.1703C19.4731 20.2941 19.3854 20.4108 19.2877 20.5188C18.8406 21.0137 17.323 21.8952 16.7639 22.2535L15.5226 23.0127C14.6126 23.5733 13.7529 23.9702 12.6687 23.9974C12.6174 23.9989 12.5671 24.0002 12.5174 24.0002C12.4474 24.0002 12.3783 23.9989 12.3091 23.9962C10.4731 23.9262 8.872 22.9397 7.94853 21.4821C7.51642 20.8014 7.24421 20.0316 7.15234 19.2305C7.35089 20.3531 8.32837 21.204 9.5069 21.204C9.92 21.204 10.3078 21.0997 10.6462 20.9162L10.6544 20.9119L10.7757 20.8389L11.2701 20.5471L11.8992 20.1745V20.1568L11.9802 20.108L17.6088 16.7715L18.0422 16.5146L18.0852 16.5292C18.0864 16.5292 18.0892 16.5307 18.0907 16.5307C18.2152 16.5614 18.3365 16.6037 18.4523 16.6549C18.7213 16.771 18.9637 16.936 19.1717 17.1373C19.2554 17.2174 19.333 17.3038 19.4038 17.3956C19.4648 17.4724 19.5198 17.5536 19.5698 17.6387C19.7881 18.0028 19.9141 18.4314 19.9141 18.8877Z" fill="url(#paint3_linear_63_82872)"/>
</g>
<defs>
<linearGradient id="paint0_linear_63_82872" x1="14.2719" y1="11.1035" x2="20.6653" y2="18.2288" gradientUnits="userSpaceOnUse">
<stop stop-color="#37BDFF"/>
<stop offset="0.25" stop-color="#26C6F4"/>
<stop offset="0.5" stop-color="#15D0E9"/>
<stop offset="0.75" stop-color="#3BD6DF"/>
<stop offset="1" stop-color="#62DCD4"/>
</linearGradient>
<linearGradient id="paint1_linear_63_82872" x1="9.83636" y1="20.901" x2="9.63073" y2="5.08948" gradientUnits="userSpaceOnUse">
<stop stop-color="#1B48EF"/>
<stop offset="0.5" stop-color="#2080F1"/>
<stop offset="1" stop-color="#26B8F4"/>
</linearGradient>
<linearGradient id="paint2_linear_63_82872" x1="13.5332" y1="20.2445" x2="29.0071" y2="20.2445" gradientUnits="userSpaceOnUse">
<stop stop-color="#39D2FF"/>
<stop offset="0.5" stop-color="#248FFA"/>
<stop offset="1" stop-color="#104CF5"/>
</linearGradient>
<linearGradient id="paint3_linear_63_82872" x1="13.5332" y1="20.2445" x2="29.0071" y2="20.2445" gradientUnits="userSpaceOnUse">
<stop stop-color="white"/>
<stop offset="1"/>
</linearGradient>
<clipPath id="clip0_63_82872">
<rect width="15.104" height="20" fill="white" transform="translate(6 4)"/>
</clipPath>
</defs>
</svg>
