<svg width="28" height="28" viewBox="0 0 28 28" fill="none" xmlns="http://www.w3.org/2000/svg">
<path d="M17.7668 9.50678H18.5245L20.6843 7.347L20.7902 6.4297C16.7705 2.88128 10.6357 3.26461 7.08726 7.28436C6.10134 8.40004 5.38688 9.72902 4.99609 11.1669C5.23623 11.0684 5.50322 11.052 5.75381 11.1221L10.0734 10.4092C10.0734 10.4092 10.2926 10.0452 10.4075 10.0676C12.3286 7.95705 15.5623 7.71094 17.7817 9.50678H17.7668Z" fill="#EA4335"/>
<path d="M23.7621 11.1662C23.2654 9.33758 22.2467 7.69388 20.8297 6.43799L17.7989 9.46883C19.0786 10.5144 19.808 12.091 19.7767 13.7436V14.2821C21.2668 14.2821 22.4749 15.4903 22.4749 16.9803C22.4749 18.4704 21.2668 19.6785 19.7767 19.6785H14.3802L13.8418 20.2245V23.4611L14.3802 23.9996H19.7767C23.6518 24.0294 26.8183 20.9121 26.8482 17.037C26.8661 14.6833 25.7071 12.4818 23.7621 11.1662V11.1662Z" fill="#4285F4"/>
<path d="M8.97625 23.9659H14.3727V19.6464H8.97625C8.59143 19.6464 8.21258 19.5629 7.86206 19.4033L7.10435 19.639L4.92966 21.7987L4.74023 22.5564C5.95884 23.4782 7.44741 23.9734 8.97625 23.9659Z" fill="#34A853"/>
<path d="M8.97614 9.95367C5.09958 9.97605 1.97775 13.1367 2.00012 17.0132C2.01354 19.1775 3.02333 21.2149 4.74011 22.5335L7.8694 19.4042C6.51208 18.7911 5.908 17.1922 6.52103 15.8349C7.13406 14.4776 8.73301 13.8735 10.0903 14.4865C10.6884 14.7565 11.1672 15.2368 11.4387 15.8349L14.568 12.7056C13.2375 10.9635 11.1672 9.94472 8.97614 9.95367V9.95367Z" fill="#FBBC05"/>
</svg>
