<svg width="28" height="28" viewBox="0 0 28 28" fill="none" xmlns="http://www.w3.org/2000/svg">
<g clip-path="url(#clip0_63_82866)">
<path d="M17.4922 6.38503V21.3766C17.4922 23.0554 18.6492 23.9888 19.8772 23.9888C21.013 23.9888 22.2622 23.1938 22.2622 21.3766V6.49859C22.2622 4.96182 21.1265 4 19.8772 4C18.6279 4 17.4922 5.06119 17.4922 6.38503Z" fill="#F8AB00"/>
<path d="M11.2461 13.9944V21.3766C11.2461 23.0554 12.4031 23.9888 13.6311 23.9888C14.7669 23.9888 16.0162 23.1938 16.0162 21.3766V14.108C16.0162 12.5712 14.8804 11.6094 13.6311 11.6094C12.3818 11.6094 11.2461 12.6706 11.2461 13.9944Z" fill="#E37300"/>
<path d="M9.77005 21.6038C9.77005 22.9205 8.70176 23.9887 7.38503 23.9887C6.06829 23.9887 5 22.9205 5 21.6038C5 20.287 6.06829 19.2188 7.38503 19.2188C8.70176 19.2188 9.77005 20.287 9.77005 21.6038Z" fill="#E37300"/>
</g>
<defs>
<clipPath id="clip0_63_82866">
<rect width="17.3684" height="20" fill="white" transform="translate(5 4)"/>
</clipPath>
</defs>
</svg>
