<svg width="36" height="36" viewBox="0 0 36 36" fill="none" xmlns="http://www.w3.org/2000/svg">
<g clip-path="url(#clip0_6438_2137)">
<path fill-rule="evenodd" clip-rule="evenodd" d="M30.6552 10.1477C30.6652 10.1847 30.6702 10.2229 30.6703 10.2613V16.2296C30.6703 16.3062 30.6503 16.3815 30.6122 16.4478C30.574 16.5141 30.5192 16.569 30.4533 16.6071L25.4804 19.4912V25.2076C25.4804 25.3632 25.3983 25.5068 25.2644 25.5851L14.884 31.6045C14.8602 31.6181 14.8343 31.6269 14.8084 31.6361C14.7987 31.6394 14.7895 31.6453 14.7792 31.6481C14.7067 31.6673 14.6304 31.6673 14.5578 31.6481C14.5459 31.6448 14.5351 31.6383 14.5238 31.6339C14.5 31.6252 14.4752 31.6176 14.4525 31.6045L4.07426 25.5851C4.00833 25.547 3.95355 25.492 3.91544 25.4257C3.87732 25.3594 3.85723 25.2842 3.85718 25.2076V7.30277C3.85718 7.2636 3.86258 7.22553 3.8723 7.18854C3.87554 7.17603 3.8831 7.1646 3.88742 7.15209C3.89552 7.12925 3.90308 7.10586 3.91496 7.08464C3.92306 7.0705 3.93494 7.05908 3.94466 7.04602C3.95708 7.02862 3.96842 7.01066 3.983 6.99543C3.99542 6.98292 4.01162 6.97368 4.02566 6.9628C4.04132 6.94974 4.05536 6.9356 4.07318 6.92526L9.26312 3.91556C9.32883 3.87747 9.40331 3.85742 9.47912 3.85742C9.55493 3.85742 9.62941 3.87747 9.69512 3.91556L14.8845 6.92526H14.8856C14.9029 6.93614 14.9175 6.94974 14.9331 6.96225C14.9472 6.97313 14.9628 6.98292 14.9752 6.99489C14.9904 7.01067 15.0012 7.02862 15.0141 7.04602C15.0233 7.05908 15.0357 7.0705 15.0433 7.08464C15.0557 7.1064 15.0627 7.12925 15.0714 7.15209C15.0757 7.1646 15.0832 7.17603 15.0865 7.18908C15.0964 7.22615 15.1015 7.26437 15.1016 7.30277V18.486L19.4259 15.9778V10.2608C19.4259 10.2227 19.4313 10.1841 19.441 10.1477C19.4448 10.1346 19.4518 10.1232 19.4562 10.1107C19.4648 10.0878 19.4724 10.0644 19.4842 10.0432C19.4923 10.0291 19.5042 10.0177 19.5134 10.0046C19.5264 9.98719 19.5372 9.96924 19.5523 9.95401C19.5647 9.9415 19.5804 9.93225 19.5944 9.92137C19.6106 9.90832 19.6246 9.89418 19.6419 9.88384L24.8324 6.87413C24.8981 6.83599 24.9726 6.81592 25.0484 6.81592C25.1242 6.81592 25.1987 6.83599 25.2644 6.87413L30.4538 9.88384C30.4722 9.89472 30.4862 9.90832 30.5024 9.92083C30.5159 9.93171 30.5316 9.9415 30.544 9.95347C30.5591 9.96924 30.5699 9.98719 30.5829 10.0046C30.5926 10.0177 30.6045 10.0291 30.612 10.0432C30.6244 10.0644 30.6315 10.0878 30.6401 10.1107C30.645 10.1232 30.652 10.1346 30.6552 10.1477ZM29.8053 15.9778V11.0147L27.9892 12.0678L25.4804 13.5229V18.486L29.8058 15.9778H29.8053ZM24.6159 24.9558V19.9895L22.1481 21.4092L15.1011 25.4606V30.4737L24.6159 24.9558ZM4.72226 8.05615V24.9558L14.236 30.4731V25.4611L9.26582 22.6276L9.2642 22.6266L9.26204 22.6255C9.2453 22.6157 9.23126 22.6015 9.2156 22.5896C9.2021 22.5787 9.18644 22.57 9.17456 22.558L9.17348 22.5564C9.15944 22.5428 9.14972 22.5259 9.13784 22.5107C9.12704 22.496 9.11408 22.4835 9.10544 22.4683L9.1049 22.4666C9.09518 22.4503 9.08924 22.4307 9.08222 22.4122C9.0752 22.3959 9.06602 22.3807 9.0617 22.3633C9.0563 22.3426 9.05522 22.3203 9.05306 22.2991C9.0509 22.2828 9.04658 22.2665 9.04658 22.2501V22.2491V10.5643L6.53828 9.1087L4.72226 8.05615ZM9.47966 4.79568L5.15588 7.30277L9.47858 9.80986L13.8018 7.30223L9.47858 4.79568H9.47966ZM11.7282 20.442L14.2365 18.9875V8.05615L12.4205 9.10925L9.91166 10.5643V21.4957L11.7282 20.442ZM25.0484 7.75425L20.7252 10.2613L25.0484 12.7684L29.3711 10.2608L25.0484 7.75425ZM24.6159 13.5229L22.107 12.0678L20.291 11.0147V15.9778L22.7993 17.4323L24.6159 18.486V13.5229ZM14.668 24.7072L21.0092 21.0605L24.179 19.2383L19.859 16.7328L14.8851 19.6174L10.3518 22.2463L14.668 24.7072Z" fill="#FF2D20"/>
</g>
<defs>
<clipPath id="clip0_6438_2137">
<rect width="27" height="28.2857" fill="white" transform="translate(3.85718 3.85742)"/>
</clipPath>
</defs>
</svg>
