<svg width="84" height="42" viewBox="0 0 84 42" fill="none" xmlns="http://www.w3.org/2000/svg">
<path d="M27.053 12.5742H10V29.601H27.053V12.5742Z" fill="#18A0FB"/>
<path d="M22.7895 17.8618L22.2567 18.1689V18.1691H22.2566L21.7238 18.4761V18.4762H21.7237L21.1909 18.1691H21.1908L20.658 17.8618H20.6578L20.1251 17.5547H20.1249L19.5922 17.2474H19.592L19.0593 16.9403H19.0591L18.5264 16.6331L16.3947 17.8618L15.8618 18.1691L15.3289 18.4762L14.796 18.1691L14.2631 17.8618L17.9935 15.7116L18.5264 15.4043L19.0591 15.7116H19.0593L19.592 16.0187H19.5922L20.1249 16.326H20.1251L20.6578 16.6331H20.658L21.1908 16.9403H21.1909L21.7237 17.2474H21.7238L22.2566 17.5547H22.2567L22.7895 17.8618Z" fill="white"/>
<path d="M21.191 19.3974V20.6263L20.1255 20.0118H20.125L19.5923 19.7045H19.5921L19.0594 19.3974H19.0592L18.5265 19.0901L17.4606 19.7045L16.3948 19.0901L17.9936 18.1686L18.5265 17.8613L19.0592 18.1686H19.0594L19.5921 18.4757H19.5923L20.125 18.783H20.1252L20.6579 19.0901H20.6581L21.191 19.3974Z" fill="white"/>
<path d="M21.191 22.4691V23.6978H21.1908L20.658 24.0049H20.6579L20.1251 24.3122H20.125L19.5922 24.6193H19.5921L19.0593 24.9266H19.0592L18.5264 25.2337L15.329 23.3906V19.7041L15.8617 20.0112L15.8619 20.0114L16.3946 20.3185H16.3948V22.7762L16.9277 23.0835L18.5264 24.0049L19.0592 23.6978H19.0593L19.5921 23.3906H19.5922L20.125 23.0835H20.1251L20.6579 22.7762H20.658L21.191 22.4691Z" fill="white"/>
<path d="M23.8553 18.4761V24.6201H23.8551L23.3224 24.9273H23.3222L22.7895 25.2344H22.7893L22.2566 25.5417H22.2564L21.7237 25.8488H21.7235L21.1908 26.1561H21.1906L20.6578 26.4632H20.6577L20.1249 26.7705V25.5417L20.6577 25.2344H20.6578L21.1906 24.9273H21.1908L21.7235 24.6201H21.7237L22.2564 24.3129H22.2566L22.7893 24.0057H22.7895V19.705L22.2566 20.0121L21.7237 20.3192V19.0903L22.2564 18.7833H22.2566V18.7832L22.7893 18.4761H22.7895V18.4759L23.3222 18.1689H23.3224L23.8553 18.4761Z" fill="white"/>
<path d="M21.1907 19.3977L20.658 19.7048L20.1251 20.0121L19.5921 20.3192L19.0594 20.6265L18.5263 20.9336L17.9934 20.6265L13.7302 18.1689L13.1973 18.4761V24.6201L14.2631 25.2349L14.796 25.5422L16.9276 26.771V25.5417L16.3947 25.2344L14.2631 24.0057V20.3194V19.7045L14.7958 20.0116L15.3286 20.3186L15.8613 20.6257L16.3947 20.9338L16.9275 21.241L17.4602 21.5481L17.9931 21.8554V24.2675L18.5263 24.5756L19.0591 24.2683V21.8562L19.592 21.5489L20.1249 21.242L20.658 20.9338L21.1909 20.6268V19.3977H21.1907Z" fill="white"/>
<path d="M35.6657 24.867C35.2194 25.112 34.6527 25.2345 33.9656 25.2345C33.4393 25.2345 32.9528 25.1388 32.5062 24.9473C32.0706 24.7633 31.6757 24.4954 31.3439 24.159C31.0149 23.8242 30.7536 23.4293 30.5741 22.9958C30.3897 22.5544 30.2975 22.0799 30.2975 21.5723C30.2975 21.0648 30.3897 20.5881 30.5741 20.1423C30.7534 19.705 31.0146 19.3058 31.3436 18.9661C31.6763 18.6245 32.0734 18.352 32.512 18.1641C32.963 17.9683 33.4517 17.8703 33.9783 17.8701C34.6474 17.8701 35.2029 17.9815 35.6447 18.2043C36.0823 18.4239 36.475 18.7231 36.8027 19.0864L35.7987 20.1691C35.5633 19.9223 35.2954 19.7087 35.0022 19.5342C34.7212 19.3694 34.3754 19.287 33.9648 19.287C33.6824 19.2842 33.4031 19.3459 33.1482 19.4673C32.9028 19.5843 32.6841 19.7503 32.5057 19.9551C32.3235 20.1664 32.1807 20.4086 32.0841 20.6702C31.9799 20.9503 31.9278 21.247 31.9302 21.5457C31.9302 21.8665 31.9815 22.165 32.0841 22.4412C32.1808 22.7077 32.3285 22.9529 32.5191 23.1629C32.7073 23.3686 32.9349 23.5344 33.1884 23.6507C33.4476 23.7706 33.7335 23.8306 34.046 23.8306C34.4295 23.8306 34.7663 23.7482 35.0565 23.5832C35.3581 23.4096 35.6349 23.1963 35.8795 22.949L36.8567 23.9107C36.518 24.2957 36.115 24.6192 35.6657 24.867Z" fill="#18A0FB"/>
<path d="M44.6924 18.2141C45.0809 17.9847 45.543 17.87 46.0788 17.8701C46.8556 17.8701 47.4628 18.104 47.9001 18.5718C48.3375 19.0397 48.5563 19.7057 48.5565 20.57V25.2208H46.9234V21.074C46.9234 20.5139 46.799 20.0872 46.5503 19.7938C46.3015 19.5005 45.9506 19.3536 45.4975 19.3532C45.0532 19.3532 44.6912 19.5021 44.4115 19.8C44.1318 20.0978 43.9919 20.5312 43.9918 21.1V25.2213H42.3587V21.0606C42.3587 20.5094 42.2343 20.0872 41.9856 19.7938C41.7368 19.5005 41.3857 19.3536 40.9322 19.3532C40.4796 19.3532 40.1154 19.5088 39.8396 19.82C39.5638 20.1312 39.4261 20.5621 39.4265 21.1128V25.2213H37.794V17.8701H39.4271V19.0975C39.5421 18.9369 39.6672 18.7838 39.8017 18.6392C39.9398 18.4914 40.0946 18.3602 40.2631 18.248C40.4447 18.1275 40.6431 18.0343 40.8519 17.9715C41.0702 17.904 41.3132 17.8702 41.581 17.8701C42.0894 17.8701 42.5197 17.9848 42.872 18.2141C43.2197 18.4384 43.4996 18.7531 43.6814 19.1244C43.9671 18.7469 44.3041 18.4435 44.6924 18.2141Z" fill="#18A0FB"/>
<path d="M49.8015 25.2215V15.3174H51.4344V25.2213L49.8015 25.2215Z" fill="#18A0FB"/>
<path d="M57.0566 25.2213V24.2053C56.8156 24.4907 56.5078 24.7313 56.133 24.9271C55.7583 25.1229 55.3031 25.221 54.7675 25.2213C54.4412 25.2231 54.1165 25.1757 53.8043 25.0808C53.5009 24.9874 53.2354 24.8493 53.0079 24.6665C52.778 24.4813 52.5908 24.2488 52.4589 23.9849C52.3204 23.7131 52.2512 23.399 52.2514 23.0426V23.0158C52.2514 22.6328 52.3228 22.2987 52.4657 22.0135C52.6044 21.7331 52.8087 21.4901 53.0613 21.3051C53.3156 21.118 53.619 20.9777 53.9715 20.884C54.3241 20.7904 54.7056 20.7436 55.1162 20.7437C55.5444 20.7437 55.908 20.7705 56.2071 20.8239C56.499 20.8759 56.7871 20.9473 57.0695 21.0377V20.8643C57.0695 20.3744 56.92 20.0002 56.6211 19.7416C56.3221 19.4831 55.8917 19.3536 55.3298 19.3532C54.9282 19.3532 54.5712 19.3933 54.2589 19.4735C53.9348 19.5577 53.6172 19.665 53.3085 19.7946L52.8664 18.4982C53.255 18.3214 53.6581 18.1783 54.0712 18.0705C54.4817 17.9636 54.977 17.9102 55.557 17.9102C56.6097 17.9102 57.3905 18.1708 57.8996 18.692C58.4086 19.2132 58.663 19.9461 58.6625 20.8906V25.2213H57.0566ZM57.0967 22.0806C56.8914 22.0004 56.6482 21.9336 56.3672 21.8801C56.0736 21.8255 55.7756 21.7987 55.4769 21.8C54.9683 21.8 54.5712 21.898 54.2856 22.094C54 22.29 53.8572 22.5707 53.8572 22.9361V22.9627C53.8572 23.3016 53.9888 23.56 54.252 23.7379C54.5151 23.9158 54.8387 24.0052 55.2226 24.0059C55.4742 24.0083 55.7248 23.9723 55.9655 23.899C56.1801 23.8343 56.3817 23.7325 56.5611 23.5982C56.7264 23.4741 56.8614 23.3142 56.9558 23.1305C57.0509 22.942 57.0991 22.7334 57.0964 22.5224L57.0967 22.0806Z" fill="#18A0FB"/>
<path d="M66.8216 23.1097C66.6386 23.564 66.3932 23.9494 66.0853 24.2658C65.787 24.5759 65.4266 24.8198 65.0276 24.9817C64.6388 25.1404 64.2228 25.2221 63.8027 25.2223C63.2225 25.2223 62.7406 25.0975 62.357 24.848C61.9734 24.5985 61.6566 24.3089 61.4066 23.9791L61.4201 25.2223H59.7872V15.3174H61.4204V19.1935C61.6771 18.8206 62.0036 18.5006 62.3818 18.2512C62.7646 17.9974 63.2409 17.8704 63.8108 17.8703C64.228 17.87 64.6411 17.9517 65.0266 18.1109C65.4221 18.2738 65.7791 18.5174 66.0749 18.826C66.382 19.1424 66.6291 19.5277 66.8162 19.9821C67.0034 20.4365 67.0967 20.9577 67.096 21.5459C67.096 22.1337 67.0046 22.655 66.8216 23.1097ZM65.3023 20.6029C65.1952 20.3223 65.0502 20.084 64.8673 19.888C64.6853 19.6925 64.4645 19.5369 64.2191 19.4311C63.9737 19.3252 63.709 19.2714 63.4416 19.2731C63.1703 19.2721 62.9015 19.3267 62.6521 19.4335C62.4033 19.5396 62.1797 19.697 61.9959 19.8952C61.8034 20.1038 61.6513 20.3463 61.5475 20.6104C61.4359 20.8865 61.3801 21.1983 61.3801 21.5459C61.3801 21.8935 61.4359 22.2053 61.5475 22.4814C61.6513 22.7455 61.8033 22.988 61.9959 23.1965C62.1798 23.3943 62.4033 23.5513 62.6518 23.6574C62.9012 23.7642 63.1699 23.8187 63.4413 23.8177C63.7086 23.8194 63.9734 23.7656 64.2188 23.6598C64.4642 23.5539 64.6849 23.3983 64.867 23.2028C65.0497 23.007 65.1947 22.7687 65.302 22.4879C65.4092 22.207 65.4628 21.8929 65.4626 21.5456C65.4628 21.1982 65.4094 20.8842 65.3023 20.6036V20.6029Z" fill="#18A0FB"/>
<path d="M72.7985 23.9786C72.67 24.2482 72.4799 24.4838 72.2435 24.6666C72.007 24.8493 71.728 24.9874 71.4066 25.0809C71.0715 25.1765 70.7244 25.2238 70.3759 25.2214C69.8672 25.2214 69.3519 25.132 68.8297 24.9534C68.3047 24.7737 67.8137 24.5072 67.3771 24.1651L68.0999 23.0691C68.4834 23.3544 68.8738 23.5705 69.2712 23.7173C69.6686 23.8642 70.0501 23.9377 70.4157 23.9381C70.7639 23.9381 71.0338 23.869 71.2255 23.7309C71.4172 23.5928 71.5132 23.4079 71.5134 23.1763V23.1495C71.5154 23.0221 71.4701 22.8986 71.3863 22.8026C71.3013 22.7047 71.1855 22.6178 71.0389 22.542C70.8757 22.46 70.7054 22.3929 70.5301 22.3415C70.3381 22.2837 70.1396 22.2236 69.9344 22.1611C69.6757 22.0808 69.4146 21.9915 69.1514 21.8931C68.8978 21.801 68.6587 21.6731 68.4413 21.5135C68.2324 21.3586 68.0571 21.1632 67.9259 20.9388C67.792 20.7115 67.7251 20.4285 67.7251 20.09V20.063C67.7251 19.7333 67.7898 19.4348 67.9193 19.1676C68.0456 18.9039 68.2284 18.6712 68.4547 18.4859C68.6822 18.2987 68.9499 18.1561 69.2578 18.0581C69.5762 17.9586 69.9081 17.9091 70.2417 17.9112C70.7006 17.9129 71.1565 17.9846 71.5938 18.1239C72.0346 18.2599 72.4537 18.4579 72.8386 18.7119L72.1961 19.862C71.8707 19.6637 71.5252 19.5002 71.1654 19.3742C70.8174 19.254 70.4963 19.1938 70.2022 19.1937C69.8898 19.1937 69.6466 19.2606 69.4727 19.3943C69.2988 19.528 69.2119 19.6972 69.2119 19.9021V19.9289C69.2114 19.9896 69.223 20.0498 69.2459 20.106C69.2689 20.1622 69.3028 20.2133 69.3456 20.2563C69.4349 20.3498 69.5531 20.4344 69.7004 20.5103C69.8647 20.5933 70.0347 20.6648 70.209 20.7241C70.4008 20.7909 70.5994 20.8555 70.8047 20.9179C71.0636 20.998 71.3224 21.0916 71.5811 21.1986C71.8308 21.3004 72.0669 21.4328 72.2839 21.5928C72.4914 21.7463 72.6665 21.9392 72.7993 22.1603C72.933 22.3832 72.9999 22.6549 73 22.9756V23.0024C72.9995 23.377 72.9323 23.7024 72.7985 23.9786Z" fill="#18A0FB"/>
</svg>
