<svg width="84" height="43" viewBox="0 0 84 43" fill="none" xmlns="http://www.w3.org/2000/svg">
<path d="M19.9817 18.3286V23.5508C19.9817 23.677 19.9485 23.8009 19.8854 23.9101C19.8223 24.0194 19.7316 24.1101 19.6223 24.1732L19.2498 24.3882L15.0409 26.8187L15.0745 26.7984C14.9672 26.8545 14.8475 26.8826 14.7264 26.8801C14.6054 26.8776 14.4869 26.8445 14.3821 26.784L12.9787 25.9736L9.85938 24.1732L9.76115 24.1163L9.81685 24.1468C9.71928 24.081 9.63937 23.9922 9.58412 23.8883C9.52888 23.7844 9.49999 23.6685 9.5 23.5508V18.3286C9.49957 18.2103 9.52831 18.0938 9.58368 17.9893C9.63906 17.8848 9.71935 17.7956 9.81745 17.7296C9.79828 17.7398 9.77972 17.7494 9.76115 17.7602L12.9787 15.9034L14.3821 15.0954C14.4864 15.0355 14.604 15.0028 14.7243 15.0002C14.8445 14.9976 14.9635 15.0251 15.0703 15.0804L15.0445 15.0643L15.0936 15.093L19.2438 17.4888L19.6223 17.7062C19.7316 17.7693 19.8223 17.86 19.8854 17.9693C19.9485 18.0785 19.9817 18.2024 19.9817 18.3286Z" fill="url(#paint0_linear_6438_2198)"/>
<path d="M19.9817 20.9394C19.9832 22.1277 19.7338 23.3029 19.2498 24.3882L15.0409 26.8187L15.0745 26.7984C14.9672 26.8545 14.8475 26.8826 14.7264 26.8801C14.6054 26.8776 14.4869 26.8445 14.3821 26.784L12.9787 25.9736L9.85938 24.1732L9.76115 24.1163L9.81685 24.1468C9.71928 24.081 9.63937 23.9922 9.58412 23.8883C9.52888 23.7844 9.49999 23.6685 9.5 23.5508V18.3286C9.49957 18.2103 9.52831 18.0938 9.58368 17.9893C9.63906 17.8848 9.71935 17.7956 9.81745 17.7296C9.79828 17.7398 9.77972 17.7494 9.76115 17.7602L12.9787 15.9034L14.3821 15.0954C14.4864 15.0355 14.604 15.0028 14.7243 15.0002C14.8445 14.9976 14.9635 15.0251 15.0703 15.0804L15.0445 15.0643L15.0912 15.0912L19.2414 17.487C19.7288 18.5728 19.9811 19.7493 19.9817 20.9394Z" fill="url(#paint1_linear_6438_2198)"/>
<path d="M18.3693 20.9394C18.37 22.1167 18.0672 23.2743 17.4901 24.3004C16.9131 25.3266 16.0813 26.1867 15.0751 26.7978C14.9678 26.8539 14.8481 26.882 14.727 26.8795C14.606 26.877 14.4875 26.8439 14.3827 26.7834L12.9787 25.9736L9.85938 24.1732L9.76115 24.1163L9.81685 24.1468C9.71928 24.081 9.63937 23.9922 9.58412 23.8883C9.52888 23.7844 9.49999 23.6685 9.5 23.5508V18.3286C9.49957 18.2103 9.52831 18.0938 9.58368 17.9893C9.63906 17.8848 9.71935 17.7956 9.81745 17.7296C9.79828 17.7398 9.77972 17.7494 9.76115 17.7602L12.9787 15.9034L14.3821 15.0954C14.4864 15.0355 14.604 15.0028 14.7243 15.0002C14.8445 14.9976 14.9635 15.0251 15.0703 15.0804C16.0775 15.691 16.9102 16.551 17.4881 17.5773C18.066 18.6036 18.3695 19.7616 18.3693 20.9394Z" fill="url(#paint2_linear_6438_2198)"/>
<path d="M16.7569 20.9276C16.7563 22.0621 16.3877 23.1658 15.7065 24.073C15.0252 24.9802 14.0681 25.6419 12.9787 25.9588L9.85938 24.1614L9.76115 24.1045L9.81685 24.135C9.71928 24.0692 9.63937 23.9804 9.58412 23.8765C9.52888 23.7726 9.49999 23.6567 9.5 23.5391V18.3168C9.49957 18.1985 9.52831 18.082 9.58368 17.9775C9.63906 17.873 9.71935 17.7838 9.81745 17.7178C9.79828 17.728 9.77972 17.7376 9.76115 17.7484L12.9787 15.8916C14.0688 16.2088 15.0265 16.8713 15.7078 17.7794C16.3891 18.6876 16.7573 19.7923 16.7569 20.9276Z" fill="url(#paint3_linear_6438_2198)"/>
<path d="M15.1446 20.9421C15.1446 21.5679 14.9828 22.183 14.6749 22.7278C14.367 23.2725 13.9235 23.7285 13.3874 24.0512C12.8513 24.374 12.2409 24.5527 11.6154 24.5699C10.9898 24.5871 10.3705 24.4423 9.81745 24.1495C9.71977 24.0838 9.63974 23.995 9.58439 23.8911C9.52903 23.7872 9.50006 23.6713 9.5 23.5535V18.3313C9.49957 18.213 9.52831 18.0965 9.58368 17.992C9.63906 17.8875 9.71935 17.7983 9.81745 17.7323C10.3707 17.4394 10.9902 17.2946 11.616 17.3119C12.2417 17.3293 12.8523 17.5081 13.3884 17.8312C13.9246 18.1543 14.3681 18.6105 14.6758 19.1556C14.9835 19.7007 15.145 20.3161 15.1446 20.9421Z" fill="url(#paint4_linear_6438_2198)"/>
<path d="M11.5161 22.9639C12.6296 22.9639 13.5322 22.0612 13.5322 20.9478C13.5322 19.8343 12.6296 18.9316 11.5161 18.9316C10.4026 18.9316 9.5 19.8343 9.5 20.9478C9.5 22.0612 10.4026 22.9639 11.5161 22.9639Z" fill="url(#paint5_linear_6438_2198)"/>
<path d="M14.7391 18.1084C15.1127 18.1083 15.4826 18.1818 15.8278 18.3247C16.173 18.4677 16.4866 18.6772 16.7508 18.9413C17.015 19.2054 17.2245 19.519 17.3675 19.8642C17.5105 20.2093 17.5841 20.5792 17.5841 20.9528C17.584 21.3264 17.5104 21.6962 17.3674 22.0413C17.2243 22.3864 17.0148 22.6999 16.7506 22.964C16.4864 23.2281 16.1728 23.4375 15.8276 23.5804C15.4825 23.7233 15.1126 23.7967 14.7391 23.7967H13.1914C13.0209 23.7968 12.8521 23.7634 12.6946 23.6982C12.5371 23.633 12.394 23.5374 12.2735 23.4168C12.153 23.2963 12.0574 23.1531 11.9923 22.9956C11.9272 22.838 11.8938 22.6692 11.894 22.4987V20.9528C11.894 20.5792 11.9676 20.2093 12.1106 19.8642C12.2536 19.519 12.4632 19.2054 12.7274 18.9413C12.9916 18.6772 13.3052 18.4677 13.6504 18.3247C13.9955 18.1818 14.3655 18.1083 14.7391 18.1084Z" fill="white"/>
<path d="M22.8206 24.7836C22.2912 24.352 21.9979 23.767 21.9408 23.0287C21.9381 22.9978 21.9419 22.9667 21.9519 22.9374C21.9619 22.908 21.9778 22.881 21.9988 22.8582C22.0197 22.8353 22.0452 22.8171 22.0736 22.8046C22.1019 22.7921 22.1326 22.7856 22.1636 22.7855H23.5004C23.5557 22.7857 23.609 22.8062 23.65 22.8433C23.691 22.8803 23.7169 22.9312 23.7227 22.9862C23.7626 23.3575 23.8981 23.6236 24.1293 23.7846C24.4005 23.9726 24.8185 24.0667 25.3836 24.0667C26.2592 24.0667 26.6971 23.77 26.6971 23.1766C26.6971 22.9159 26.6012 22.7222 26.4096 22.5956C26.2179 22.4691 25.8515 22.3551 25.3105 22.2536L24.6804 22.1339C22.9578 21.8444 22.0965 21.0374 22.0965 19.7129C22.0965 19.0109 22.3588 18.4535 22.8835 18.0406C23.4082 17.6277 24.1519 17.4215 25.1146 17.4219C26.1424 17.4219 26.9279 17.6389 27.4709 18.0729C27.9573 18.4623 28.2404 19.0027 28.3202 19.6943C28.3235 19.7254 28.3202 19.7569 28.3105 19.7867C28.3008 19.8165 28.285 19.8439 28.2641 19.8672C28.2431 19.8904 28.2175 19.909 28.1889 19.9218C28.1603 19.9345 28.1293 19.9411 28.098 19.9411H26.7989C26.7461 19.941 26.6952 19.9222 26.6549 19.8881C26.6147 19.854 26.5878 19.8068 26.5791 19.7548C26.5311 19.4721 26.413 19.2591 26.2245 19.1157C25.9969 18.942 25.6375 18.8552 25.1464 18.8552C24.3569 18.8552 23.9624 19.1147 23.9628 19.6338C23.9628 19.8942 24.0587 20.0938 24.2503 20.2328C24.442 20.3717 24.7834 20.4875 25.2745 20.5802L25.9262 20.7C26.8602 20.8665 27.539 21.136 27.9626 21.5085C28.3863 21.8811 28.5981 22.3968 28.5981 23.0556C28.5981 23.8451 28.3084 24.4496 27.7291 24.8693C27.1497 25.2889 26.3463 25.4988 25.3189 25.4988C24.2399 25.4996 23.4072 25.2612 22.8206 24.7836Z" fill="#F4C83D"/>
<path d="M32.177 20.9567H31.5493C31.49 20.9567 31.4332 20.9802 31.3913 21.0221C31.3494 21.064 31.3259 21.1209 31.3259 21.1801V23.5759C31.3259 23.764 31.3728 23.8924 31.4666 23.9611C31.5613 24.0299 31.7272 24.0641 31.9662 24.0641H32.177C32.2362 24.0641 32.2931 24.0876 32.335 24.1295C32.3769 24.1714 32.4004 24.2282 32.4004 24.2875V25.126C32.4006 25.1821 32.3796 25.2363 32.3416 25.2776C32.3036 25.3189 32.2515 25.3443 32.1956 25.3488C32.031 25.3624 31.8388 25.3694 31.6188 25.3698C30.9168 25.3698 30.4101 25.2448 30.0986 24.9949C29.7872 24.7449 29.6316 24.3342 29.632 23.7628V21.1873C29.632 21.1281 29.6085 21.0712 29.5666 21.0293C29.5247 20.9874 29.4679 20.9639 29.4086 20.9639H29.0193C28.9601 20.9639 28.9032 20.9404 28.8613 20.8985C28.8194 20.8566 28.7959 20.7997 28.7959 20.7405V19.9421C28.7959 19.8828 28.8194 19.826 28.8613 19.7841C28.9032 19.7422 28.9601 19.7187 29.0193 19.7187H29.4086C29.4676 19.7187 29.5241 19.6954 29.566 19.6539C29.6078 19.6124 29.6316 19.556 29.632 19.4971V18.2806C29.6327 18.2217 29.6565 18.1655 29.6983 18.1242C29.7401 18.0828 29.7966 18.0596 29.8554 18.0596H31.1025C31.1617 18.0596 31.2185 18.0831 31.2604 18.125C31.3023 18.1669 31.3259 18.2237 31.3259 18.283V19.4971C31.3259 19.5563 31.3494 19.6131 31.3913 19.655C31.4332 19.6969 31.49 19.7205 31.5493 19.7205H32.177C32.2362 19.7205 32.2931 19.744 32.335 19.7859C32.3769 19.8278 32.4004 19.8846 32.4004 19.9439V20.7333C32.4004 20.7626 32.3946 20.7917 32.3834 20.8188C32.3722 20.8459 32.3557 20.8705 32.335 20.8913C32.3142 20.912 32.2896 20.9285 32.2625 20.9397C32.2354 20.9509 32.2063 20.9567 32.177 20.9567Z" fill="#F4C83D"/>
<path d="M33.5843 24.6361C33.048 24.1007 32.7801 23.3913 32.7805 22.5081C32.7805 21.618 33.0484 20.9051 33.5843 20.3692C34.1126 19.8409 34.8255 19.5766 35.7232 19.5762C36.6208 19.5758 37.3338 19.8401 37.862 20.3692C38.3903 20.8975 38.6547 21.6104 38.6551 22.5081C38.6551 23.3989 38.3907 24.1083 37.862 24.6361C37.3266 25.172 36.6136 25.4399 35.7232 25.4399C34.8327 25.4399 34.1198 25.172 33.5843 24.6361ZM36.624 23.6808C36.8344 23.4133 36.9395 23.0224 36.9391 22.5081C36.9387 21.9938 36.8336 21.6028 36.624 21.3353C36.4144 21.0678 36.1149 20.934 35.7256 20.934C35.3263 20.934 35.0222 21.0678 34.8134 21.3353C34.6045 21.6028 34.4995 21.9938 34.4983 22.5081C34.4983 23.022 34.6033 23.4129 34.8134 23.6808C35.0234 23.9487 35.3275 24.0827 35.7256 24.0827C36.1145 24.0827 36.414 23.9487 36.624 23.6808Z" fill="#F4C83D"/>
<path d="M43.02 19.8542V20.9628C43.02 21.0221 42.9964 21.0789 42.9545 21.1208C42.9126 21.1627 42.8558 21.1863 42.7966 21.1863H42.5857C41.5939 21.1863 41.0979 21.693 41.0979 22.7064V25.089C41.0979 25.1483 41.0744 25.2051 41.0325 25.247C40.9906 25.2889 40.9338 25.3125 40.8745 25.3125H39.6287C39.5694 25.3125 39.5126 25.2889 39.4707 25.247C39.4288 25.2051 39.4053 25.1483 39.4053 25.089V19.9332C39.4053 19.874 39.4288 19.8172 39.4707 19.7753C39.5126 19.7334 39.5694 19.7098 39.6287 19.7098H40.8326C40.8918 19.7098 40.9487 19.7334 40.9906 19.7753C41.0325 19.8172 41.056 19.874 41.056 19.9332C41.0556 19.9783 41.0689 20.0223 41.094 20.0597C41.1192 20.097 41.155 20.1259 41.1968 20.1425C41.2386 20.1592 41.2845 20.1628 41.3284 20.1529C41.3723 20.143 41.4122 20.1201 41.4429 20.0872C41.7348 19.7797 42.1375 19.626 42.651 19.626C42.6684 19.626 42.7217 19.626 42.8097 19.6344C42.8661 19.6377 42.919 19.6622 42.958 19.703C42.997 19.7437 43.0192 19.7978 43.02 19.8542Z" fill="#F4C83D"/>
<path d="M47.6453 19.7045H48.9145C48.9504 19.7044 48.9859 19.713 49.0178 19.7295C49.0498 19.746 49.0773 19.77 49.0979 19.7993C49.1186 19.8287 49.1319 19.8627 49.1367 19.8983C49.1415 19.934 49.1376 19.9702 49.1253 20.004L47.1985 25.527C46.9449 26.2505 46.6229 26.7496 46.2324 27.0244C45.8271 27.3075 45.2189 27.449 44.408 27.449C44.3049 27.449 44.1556 27.4448 43.9599 27.4364C43.9023 27.4343 43.8478 27.4098 43.8078 27.3683C43.7678 27.3267 43.7455 27.2713 43.7455 27.2136V26.3452C43.7455 26.3158 43.7513 26.2868 43.7625 26.2597C43.7738 26.2326 43.7902 26.2079 43.811 26.1872C43.8317 26.1664 43.8563 26.15 43.8834 26.1387C43.9105 26.1275 43.9396 26.1217 43.9689 26.1217H44.2888C44.853 26.1217 45.1353 25.8612 45.1357 25.3401C45.1357 25.1081 45.0486 24.7461 44.8745 24.2542L43.373 20.0016C43.3607 19.9678 43.3568 19.9316 43.3616 19.8959C43.3664 19.8603 43.3797 19.8263 43.4003 19.797C43.421 19.7676 43.4485 19.7436 43.4805 19.7271C43.5124 19.7106 43.5479 19.702 43.5838 19.7021H44.9279C44.9754 19.7022 45.0217 19.7174 45.06 19.7455C45.0983 19.7736 45.1267 19.8132 45.1411 19.8585L45.3417 20.4946C45.6117 21.4018 45.8574 22.287 46.079 23.1503C46.0913 23.1985 46.1192 23.2412 46.1584 23.2716C46.1976 23.3021 46.2459 23.3187 46.2956 23.3187C46.3452 23.3187 46.3935 23.3021 46.4327 23.2716C46.4719 23.2412 46.4999 23.1985 46.5121 23.1503C46.7353 22.2651 46.9749 21.3838 47.2308 20.5065L47.4321 19.8597C47.4465 19.8145 47.4749 19.7751 47.5133 19.7472C47.5516 19.7193 47.5979 19.7043 47.6453 19.7045Z" fill="#F4C83D"/>
<path d="M51.8071 23.6685H54.9438C54.9972 23.6685 55.0484 23.6897 55.0861 23.7275C55.1238 23.7652 55.145 23.8164 55.145 23.8698V25.1066C55.145 25.133 55.1398 25.1592 55.1297 25.1836C55.1196 25.208 55.1048 25.2302 55.0861 25.2489C55.0674 25.2676 55.0452 25.2824 55.0208 25.2925C54.9964 25.3026 54.9702 25.3079 54.9438 25.3079H49.9725C49.946 25.3079 49.9198 25.3028 49.8953 25.2927C49.8708 25.2826 49.8485 25.2678 49.8298 25.2491C49.811 25.2304 49.7962 25.2082 49.786 25.1838C49.7759 25.1593 49.7706 25.1331 49.7706 25.1066V17.7784C49.7706 17.7519 49.7759 17.7257 49.786 17.7012C49.7962 17.6768 49.811 17.6546 49.8298 17.6359C49.8485 17.6172 49.8708 17.6024 49.8953 17.5923C49.9198 17.5822 49.946 17.5771 49.9725 17.5771H51.4046C51.4309 17.5772 51.457 17.5825 51.4813 17.5927C51.5056 17.6028 51.5277 17.6177 51.5463 17.6363C51.5649 17.655 51.5796 17.6772 51.5896 17.7016C51.5996 17.7259 51.6047 17.752 51.6046 17.7784V23.4685C51.6051 23.5218 51.6267 23.5728 51.6646 23.6102C51.7025 23.6477 51.7537 23.6687 51.8071 23.6685Z" fill="url(#paint6_linear_6438_2198)"/>
<path d="M59.5411 25.174C59.5291 25.1405 59.5183 25.1057 59.5093 25.0698C59.5003 25.0369 59.483 25.0068 59.4592 24.9824C59.4354 24.9579 59.4058 24.94 59.3731 24.9301C59.3404 24.9202 59.3058 24.9188 59.2724 24.9259C59.2391 24.9331 59.2081 24.9486 59.1823 24.971C58.8125 25.2824 58.3072 25.4381 57.6663 25.4381C57.0506 25.4381 56.5565 25.286 56.1839 24.9817C55.8114 24.6775 55.6249 24.2582 55.6245 23.7239C55.6245 22.6817 56.3556 22.0992 57.8179 21.9762L58.6977 21.9001C59.1829 21.8494 59.4253 21.6647 59.4249 21.3461C59.4249 20.9699 59.139 20.7819 58.5672 20.7819C58.2198 20.7819 57.9756 20.8344 57.8347 20.9394C57.722 21.0226 57.6454 21.1628 57.6041 21.3587C57.5947 21.4042 57.5699 21.445 57.5339 21.4744C57.4979 21.5037 57.4529 21.5198 57.4064 21.5198H56.1234C56.0942 21.5198 56.0653 21.5135 56.0387 21.5012C56.0122 21.489 55.9886 21.4711 55.9697 21.4488C55.9508 21.4265 55.9369 21.4004 55.9292 21.3722C55.9214 21.344 55.9198 21.3144 55.9246 21.2856C56.1123 20.1464 56.9967 19.5766 58.578 19.5762C60.243 19.5762 61.0756 20.1518 61.0756 21.303V24.2756C61.0686 24.5341 61.1019 24.7922 61.1744 25.0404C61.1847 25.0707 61.1876 25.1031 61.1829 25.1347C61.1782 25.1664 61.166 25.1964 61.1474 25.2225C61.1288 25.2485 61.1043 25.2697 61.0759 25.2844C61.0475 25.2991 61.016 25.3069 60.984 25.307H59.7309C59.6894 25.3071 59.6489 25.2944 59.6149 25.2706C59.581 25.2468 59.5552 25.213 59.5411 25.174ZM59.0883 23.9994C59.3131 23.7998 59.4253 23.5003 59.4249 23.101V23.0321C59.425 23.0004 59.4176 22.9692 59.4033 22.9409C59.389 22.9126 59.3682 22.8881 59.3426 22.8694C59.317 22.8507 59.2873 22.8383 59.256 22.8333C59.2247 22.8283 59.1927 22.8307 59.1625 22.8405C59.0649 22.8712 58.9646 22.893 58.8631 22.9058L58.1677 22.9818C57.625 23.0393 57.3537 23.2637 57.3537 23.6551C57.3505 23.7444 57.3685 23.8333 57.4062 23.9143C57.4438 23.9954 57.5002 24.0665 57.5705 24.1216C57.7155 24.2378 57.9183 24.2957 58.179 24.2953C58.5608 24.2973 58.8639 24.1989 59.0883 24V23.9994Z" fill="url(#paint7_linear_6438_2198)"/>
<path d="M67.1028 20.3677C67.5373 20.896 67.7545 21.6089 67.7545 22.5065C67.7545 23.4042 67.5373 24.1171 67.1028 24.6454C66.6612 25.1741 66.064 25.4384 65.3114 25.4384C64.7599 25.4384 64.3073 25.2787 63.9535 24.9593C63.9246 24.9332 63.8887 24.9161 63.8503 24.91C63.8118 24.9039 63.7724 24.9091 63.7368 24.9249C63.7013 24.9408 63.6711 24.9666 63.6499 24.9993C63.6287 25.0319 63.6175 25.0701 63.6175 25.109C63.6175 25.1355 63.6123 25.1617 63.6021 25.1862C63.592 25.2106 63.5771 25.2328 63.5584 25.2515C63.5396 25.2702 63.5174 25.285 63.4929 25.2951C63.4684 25.3052 63.4421 25.3103 63.4157 25.3102H62.1686C62.1422 25.3103 62.1159 25.3052 62.0914 25.2951C62.067 25.285 62.0447 25.2702 62.026 25.2515C62.0072 25.2328 61.9923 25.2106 61.9822 25.1862C61.972 25.1617 61.9668 25.1355 61.9668 25.109V17.7784C61.9668 17.7519 61.972 17.7257 61.9822 17.7012C61.9923 17.6768 62.0072 17.6546 62.026 17.6359C62.0447 17.6172 62.067 17.6024 62.0914 17.5923C62.1159 17.5822 62.1422 17.5771 62.1686 17.5771H63.4594C63.4858 17.5771 63.512 17.5822 63.5365 17.5923C63.5609 17.6024 63.5832 17.6172 63.6019 17.6359C63.6206 17.6546 63.6354 17.6768 63.6455 17.7013C63.6556 17.7257 63.6607 17.7519 63.6606 17.7784V19.8687C63.6606 19.9071 63.6715 19.9448 63.6922 19.9772C63.7128 20.0095 63.7422 20.0354 63.7771 20.0515C63.8119 20.0677 63.8506 20.0736 63.8887 20.0685C63.9267 20.0634 63.9625 20.0475 63.9919 20.0227C64.3405 19.7244 64.7797 19.5751 65.3096 19.5747C66.0638 19.5747 66.6616 19.839 67.1028 20.3677ZM65.7252 23.6619C65.9349 23.3824 66.0399 22.9831 66.0403 22.464C66.0403 21.4434 65.641 20.9331 64.8424 20.9331C64.039 20.9331 63.6373 21.4578 63.6373 22.5071C63.6373 23.5565 64.0398 24.0812 64.8448 24.0812C65.2213 24.0812 65.5144 23.9418 65.724 23.6631L65.7252 23.6619Z" fill="url(#paint8_linear_6438_2198)"/>
<path d="M68.8557 25.0078C68.4751 24.7362 68.2429 24.3196 68.1591 23.7578C68.1548 23.729 68.1567 23.6997 68.1648 23.6718C68.1728 23.6439 68.1868 23.618 68.2057 23.596C68.2246 23.5739 68.248 23.5562 68.2744 23.544C68.3008 23.5318 68.3295 23.5255 68.3585 23.5254H69.611C69.6572 23.5255 69.702 23.5415 69.7379 23.5707C69.7738 23.5999 69.7985 23.6406 69.808 23.6859C69.8519 23.8991 69.9398 24.0556 70.0715 24.1555C70.2345 24.2784 70.497 24.3399 70.8592 24.3399C71.4889 24.3399 71.8037 24.1589 71.8037 23.7967C71.8073 23.7183 71.7901 23.6404 71.7538 23.5709C71.7175 23.5013 71.6634 23.4426 71.5971 23.4008C71.4601 23.3101 71.2068 23.2359 70.837 23.178L70.1099 23.0582C68.8505 22.8621 68.2206 22.2901 68.2202 21.3422C68.2202 20.778 68.4374 20.3419 68.8718 20.0341C69.3063 19.7262 69.9288 19.5723 70.7394 19.5723C72.3086 19.5723 73.1703 20.1367 73.3245 21.2655C73.3283 21.294 73.326 21.3231 73.3177 21.3506C73.3094 21.3782 73.2953 21.4037 73.2764 21.4253C73.2574 21.447 73.2341 21.4644 73.2079 21.4763C73.1817 21.4882 73.1532 21.4943 73.1244 21.4943H71.9589C71.9109 21.4948 71.8643 21.4784 71.8273 21.448C71.7902 21.4175 71.7652 21.3749 71.7564 21.3278C71.6833 20.9105 71.3439 20.7019 70.7382 20.7019C70.1664 20.7019 69.8805 20.8792 69.8805 21.2338C69.878 21.307 69.8947 21.3795 69.9289 21.4443C69.9632 21.509 70.0138 21.5636 70.0757 21.6027C70.2063 21.6894 70.4128 21.7547 70.6951 21.7986L71.5336 21.9184C72.2064 22.0194 72.7022 22.2113 73.0208 22.494C73.3394 22.7767 73.4992 23.164 73.5 23.6559C73.5 24.2353 73.2664 24.6823 72.7992 24.997C72.332 25.3116 71.6752 25.469 70.8286 25.469C69.9434 25.4706 69.2857 25.3168 68.8557 25.0078Z" fill="url(#paint9_linear_6438_2198)"/>
<defs>
<linearGradient id="paint0_linear_6438_2198" x1="12.1204" y1="25.4789" x2="17.3619" y2="16.4005" gradientUnits="userSpaceOnUse">
<stop stop-color="#E7B81E"/>
<stop offset="1" stop-color="#E7C42C"/>
</linearGradient>
<linearGradient id="paint1_linear_6438_2198" x1="19.9823" y1="20.94" x2="9.5" y2="20.94" gradientUnits="userSpaceOnUse">
<stop stop-color="#D8B327"/>
<stop offset="1" stop-color="#F9D331"/>
</linearGradient>
<linearGradient id="paint2_linear_6438_2198" x1="11.3071" y1="25.0087" x2="16.5479" y2="15.9315" gradientUnits="userSpaceOnUse">
<stop stop-color="#E7B81E"/>
<stop offset="1" stop-color="#E7C42C"/>
</linearGradient>
<linearGradient id="paint3_linear_6438_2198" x1="16.7569" y1="20.9276" x2="9.50001" y2="20.9276" gradientUnits="userSpaceOnUse">
<stop stop-color="#D8B327"/>
<stop offset="1" stop-color="#F9D331"/>
</linearGradient>
<linearGradient id="paint4_linear_6438_2198" x1="9.91089" y1="24.2034" x2="13.5388" y2="17.9198" gradientUnits="userSpaceOnUse">
<stop stop-color="#E7B81E"/>
<stop offset="1" stop-color="#E7C42C"/>
</linearGradient>
<linearGradient id="paint5_linear_6438_2198" x1="13.5316" y1="20.9478" x2="9.5" y2="20.9478" gradientUnits="userSpaceOnUse">
<stop stop-color="#D8B327"/>
<stop offset="1" stop-color="#F9D331"/>
</linearGradient>
<linearGradient id="paint6_linear_6438_2198" x1="53.4476" y1="26.2027" x2="48.8303" y2="18.2049" gradientUnits="userSpaceOnUse">
<stop stop-color="#1F85B7"/>
<stop offset="1" stop-color="#2790D8"/>
</linearGradient>
<linearGradient id="paint7_linear_6438_2198" x1="60.2335" y1="25.773" x2="56.8572" y2="19.9254" gradientUnits="userSpaceOnUse">
<stop stop-color="#1F85B7"/>
<stop offset="1" stop-color="#2790D8"/>
</linearGradient>
<linearGradient id="paint8_linear_6438_2198" x1="66.075" y1="25.3977" x2="61.6985" y2="17.8173" gradientUnits="userSpaceOnUse">
<stop stop-color="#1F85B7"/>
<stop offset="1" stop-color="#2790D8"/>
</linearGradient>
<linearGradient id="paint9_linear_6438_2198" x1="72.3302" y1="25.2713" x2="69.1941" y2="19.8388" gradientUnits="userSpaceOnUse">
<stop stop-color="#1F85B7"/>
<stop offset="1" stop-color="#2790D8"/>
</linearGradient>
</defs>
</svg>
