<svg width="84" height="43" viewBox="0 0 84 43" fill="none" xmlns="http://www.w3.org/2000/svg">
<g clip-path="url(#clip0_6438_2196)">
<path d="M35.6991 19.251C35.7461 19.251 35.7925 19.26 35.8357 19.2774C35.8789 19.2949 35.9179 19.3205 35.9505 19.3526C35.9831 19.3847 36.0085 19.4227 36.0253 19.4644C36.042 19.5061 36.0498 19.5505 36.0481 19.5951C35.9828 21.29 35.4226 22.6361 34.5465 23.5981C34.4907 23.6601 34.4336 23.7188 34.3752 23.7768C33.985 24.165 33.5299 24.4891 33.0284 24.736C32.9788 24.7603 32.9239 24.773 32.8681 24.773C32.8123 24.773 32.7574 24.7603 32.7078 24.736C32.2062 24.4891 31.751 24.165 31.3607 23.7768C31.3026 23.7188 31.2454 23.6589 31.1896 23.5981C30.3122 22.6377 29.7534 21.2903 29.6881 19.5951C29.6864 19.5505 29.6941 19.5061 29.7109 19.4644C29.7277 19.4227 29.7531 19.3847 29.7857 19.3526C29.8182 19.3205 29.8573 19.2949 29.9005 19.2774C29.9437 19.26 29.9901 19.251 30.037 19.251H30.8531C30.9432 19.2512 31.0298 19.2845 31.0947 19.344C31.1597 19.4034 31.198 19.4844 31.2017 19.57C31.2709 21.0132 31.8092 22.1399 32.6262 22.8782C32.6914 22.9373 32.778 22.9703 32.8681 22.9703C32.9582 22.9703 33.0448 22.9373 33.11 22.8782C33.926 22.1399 34.4653 21.0132 34.5345 19.57C34.5382 19.4844 34.5764 19.4035 34.6413 19.3441C34.7062 19.2846 34.7927 19.2513 34.8827 19.251H35.6991Z" fill="#153CFF"/>
<path d="M55.953 19.251C55.9978 19.251 56.0421 19.2601 56.0833 19.2775C56.1245 19.295 56.1617 19.3206 56.1928 19.3527C56.2238 19.3848 56.2481 19.4228 56.2641 19.4645C56.2801 19.5061 56.2875 19.5506 56.2858 19.5951C56.2235 21.29 55.6888 22.6361 54.8525 23.5981C54.7995 23.6602 54.745 23.7188 54.6892 23.7768C54.3168 24.1651 53.8823 24.4892 53.4035 24.736C53.3562 24.7603 53.3037 24.773 53.2504 24.773C53.1971 24.773 53.1446 24.7603 53.0972 24.736C52.6185 24.4891 52.1841 24.165 51.8116 23.7768C51.7558 23.7188 51.7013 23.6589 51.6483 23.5981C50.8107 22.6377 50.2773 21.2903 50.2149 19.5951C50.2133 19.5507 50.2207 19.5064 50.2366 19.4648C50.2524 19.4233 50.2765 19.3853 50.3074 19.3532C50.3383 19.3211 50.3754 19.2956 50.4164 19.278C50.4574 19.2604 50.5015 19.2512 50.5462 19.251H51.3252C51.4112 19.2512 51.4939 19.2845 51.5559 19.344C51.6179 19.4034 51.6544 19.4844 51.658 19.57C51.7237 21.0132 52.2378 22.14 53.0175 22.8782C53.0797 22.9374 53.1625 22.9704 53.2485 22.9704C53.3346 22.9704 53.4173 22.9374 53.4796 22.8782C54.2586 22.14 54.7733 21.0132 54.8391 19.57C54.8426 19.4844 54.8792 19.4034 54.9412 19.344C55.0032 19.2845 55.0858 19.2512 55.1719 19.251H55.953Z" fill="#153CFF"/>
<path d="M60.8676 19.251C60.9124 19.251 60.9568 19.26 60.998 19.2774C61.0392 19.2949 61.0765 19.3205 61.1076 19.3526C61.1387 19.3847 61.163 19.4227 61.179 19.4644C61.195 19.5061 61.2024 19.5505 61.2007 19.5951C61.1384 21.29 60.6037 22.6361 59.7674 23.5981C59.7144 23.6602 59.6596 23.7188 59.6041 23.7768C59.2316 24.165 58.7972 24.4891 58.3185 24.736C58.2711 24.7603 58.2186 24.773 58.1653 24.773C58.112 24.773 58.0595 24.7603 58.0122 24.736C57.5334 24.4892 57.0989 24.1651 56.7265 23.7768C56.6707 23.7188 56.6162 23.6589 56.5632 23.5981C55.7253 22.6377 55.1922 21.2903 55.1299 19.5951C55.1282 19.5505 55.1356 19.5061 55.1515 19.4644C55.1675 19.4228 55.1917 19.3847 55.2228 19.3526C55.2539 19.3205 55.2911 19.2949 55.3323 19.2775C55.3735 19.26 55.4179 19.251 55.4627 19.251H56.2417C56.3277 19.2512 56.4103 19.2845 56.4723 19.344C56.5343 19.4034 56.5709 19.4844 56.5744 19.57C56.6402 21.0132 57.1543 22.14 57.9339 22.8782C57.9961 22.9373 58.0788 22.9703 58.1648 22.9703C58.2508 22.9703 58.3335 22.9373 58.3957 22.8782C59.1747 22.14 59.6895 21.0132 59.7555 19.57C59.7591 19.4844 59.7957 19.4034 59.8577 19.344C59.9196 19.2845 60.0023 19.2512 60.0883 19.251H60.8676Z" fill="#153CFF"/>
<path d="M49.6756 19.251C49.7088 19.251 49.7417 19.2572 49.7723 19.2694C49.803 19.2815 49.8307 19.2993 49.854 19.3217C49.8773 19.3442 49.8956 19.3707 49.9079 19.3999C49.9202 19.4291 49.9262 19.4603 49.9256 19.4917C49.8826 21.4542 49.324 23.2935 48.6204 24.0332C48.173 24.5033 47.5694 24.773 46.7456 24.773C45.9217 24.773 45.3175 24.5021 44.8704 24.0332C44.1668 23.2935 43.6082 21.4542 43.5652 19.4917C43.5646 19.4603 43.5706 19.4291 43.5829 19.3999C43.5952 19.3707 43.6135 19.3442 43.6368 19.3217C43.6601 19.2993 43.6878 19.2815 43.7185 19.2694C43.7491 19.2572 43.782 19.251 43.8152 19.251H44.8254C44.8909 19.251 44.9538 19.2753 45.0005 19.3188C45.0471 19.3623 45.0738 19.4214 45.0747 19.4834C45.1031 21.3494 45.4814 23.4331 46.7443 23.4793C48.0068 23.4331 48.3851 21.3494 48.4135 19.4834C48.4144 19.4214 48.4411 19.3623 48.4877 19.3188C48.5344 19.2753 48.5973 19.251 48.6628 19.251H49.6756Z" fill="#153CFF"/>
<path d="M37.9628 19.251H37.025C36.9646 19.251 36.9156 19.3111 36.9156 19.3853V24.6386C36.9156 24.7128 36.9646 24.773 37.025 24.773H37.9628C38.0231 24.773 38.0721 24.7128 38.0721 24.6386V19.3853C38.0721 19.3111 38.0231 19.251 37.9628 19.251Z" fill="#153CFF"/>
<path d="M40.9535 25.0636C40.6148 25.0655 40.2791 24.9994 39.9657 24.8693C39.6623 24.7436 39.3887 24.554 39.163 24.3131C38.9365 24.0695 38.7646 23.7791 38.6593 23.4619C38.6459 23.4226 38.6475 23.3797 38.6637 23.3416C38.68 23.3035 38.7097 23.273 38.7471 23.2561L39.6402 22.8496C39.6798 22.8317 39.7247 22.8303 39.7652 22.8458C39.8058 22.8613 39.8387 22.8923 39.8568 22.9322C39.9631 23.1786 40.1324 23.3919 40.3472 23.5499C40.5434 23.6942 40.7801 23.7709 41.0224 23.7688C41.1322 23.7719 41.2414 23.7523 41.3435 23.7114C41.4173 23.6816 41.4818 23.6323 41.5305 23.5687C41.571 23.5116 41.5917 23.4425 41.5894 23.3722C41.5918 23.296 41.566 23.2217 41.517 23.1638C41.4622 23.1 41.3687 23.0455 41.239 23.0043L40.2131 22.6607C39.7686 22.5139 39.4261 22.2988 39.1963 22.0225C38.9609 21.7389 38.8416 21.3949 38.8416 20.9996C38.8416 20.655 38.9272 20.3461 39.0965 20.0822C39.2709 19.8144 39.5157 19.6013 39.8033 19.4671C40.0985 19.3238 40.4407 19.2511 40.8197 19.2511C41.1391 19.2484 41.456 19.3082 41.7531 19.4272C42.0331 19.5402 42.2873 19.7102 42.4998 19.9269C42.7138 20.1483 42.8768 20.4149 42.9773 20.7076C42.991 20.7469 42.9896 20.79 42.9735 20.8284C42.9573 20.8667 42.9276 20.8975 42.8901 20.9147L42.0055 21.3215C41.9854 21.3308 41.9635 21.3359 41.9413 21.3364C41.9192 21.3369 41.8971 21.3329 41.8766 21.3245C41.856 21.3162 41.8373 21.3037 41.8216 21.2878C41.8059 21.2719 41.7935 21.253 41.7852 21.2322C41.7093 21.0282 41.5753 20.8517 41.4002 20.7252C41.2304 20.6041 41.027 20.5411 40.8194 20.5452C40.709 20.5426 40.5991 20.5621 40.4961 20.6027C40.4206 20.6315 40.355 20.6819 40.3072 20.7478C40.265 20.8083 40.2429 20.8808 40.2443 20.9549C40.2426 21.0342 40.2708 21.1111 40.3233 21.17C40.3831 21.2392 40.4788 21.2957 40.6088 21.3384L41.6143 21.6661C42.0635 21.8129 42.4066 22.0241 42.6342 22.2937C42.8681 22.5707 42.9867 22.9118 42.9867 23.3071C42.9916 23.6331 42.8986 23.9529 42.7201 24.2241C42.5388 24.493 42.2892 24.7073 41.9977 24.8444C41.6983 24.9899 41.3467 25.0636 40.9535 25.0636Z" fill="#153CFF"/>
<path d="M74.2616 19.251C74.2933 19.251 74.3247 19.2572 74.3539 19.2694C74.3831 19.2815 74.4096 19.2993 74.4318 19.3218C74.454 19.3442 74.4715 19.3708 74.4832 19.3999C74.4949 19.4291 74.5006 19.4603 74.5 19.4917C74.4592 21.4542 73.9254 23.2935 73.255 24.0332C72.8276 24.5033 72.2512 24.773 71.4644 24.773C70.6775 24.773 70.1008 24.5021 69.6738 24.0332C69.0018 23.2935 68.468 21.4542 68.4288 19.4917C68.4281 19.4603 68.4339 19.4291 68.4456 19.3999C68.4573 19.3707 68.4748 19.3441 68.497 19.3216C68.5193 19.2992 68.5458 19.2814 68.5751 19.2693C68.6043 19.2572 68.6358 19.2509 68.6675 19.251H69.6324C69.6949 19.251 69.755 19.2753 69.7995 19.3188C69.8441 19.3623 69.8696 19.4214 69.8705 19.4834C69.8975 21.3494 70.2592 23.4331 71.465 23.4793C72.6711 23.4331 73.0324 21.3494 73.0595 19.4834C73.0604 19.4214 73.0859 19.3623 73.1305 19.3188C73.175 19.2753 73.2351 19.251 73.2976 19.251H74.2616Z" fill="#153CFF"/>
<path d="M63.0881 19.251H61.9158C61.8404 19.251 61.7792 19.3111 61.7792 19.3853V24.6386C61.7792 24.7128 61.8404 24.773 61.9158 24.773H63.0881C63.1635 24.773 63.2247 24.7128 63.2247 24.6386V19.3853C63.2247 19.3111 63.1635 19.251 63.0881 19.251Z" fill="#153CFF"/>
<path d="M65.9505 24.7726C65.6346 24.7745 65.3215 24.7084 65.0292 24.5782C64.7448 24.4528 64.4887 24.262 64.2785 24.0191C64.0683 23.7761 63.9088 23.4867 63.8111 23.1706C63.7987 23.1313 63.8003 23.0884 63.8155 23.0504C63.8307 23.0123 63.8585 22.9817 63.8933 22.9647L64.7266 22.5582C64.7635 22.5402 64.8055 22.5387 64.8434 22.5541C64.8813 22.5696 64.912 22.6006 64.929 22.6405C65.0281 22.8871 65.1861 23.1004 65.3866 23.2583C65.5697 23.4026 65.7905 23.4794 66.0166 23.4773C66.119 23.4803 66.221 23.4608 66.3162 23.4198C66.385 23.39 66.4453 23.3407 66.4907 23.2772C66.5284 23.22 66.5478 23.1509 66.5456 23.0806C66.5479 23.0044 66.5238 22.93 66.4781 22.8722C66.427 22.8084 66.3397 22.7538 66.2187 22.7126L65.26 22.3702C64.8456 22.2234 64.5257 22.0083 64.3116 21.732C64.0919 21.4483 63.9803 21.1042 63.9803 20.7088C63.9751 20.3843 64.0578 20.0652 64.2182 19.7914C64.381 19.5236 64.6093 19.3105 64.8776 19.1761C65.1534 19.0328 65.4724 18.96 65.8263 18.96C66.1243 18.9574 66.42 19.0172 66.6972 19.1362C66.9592 19.2487 67.1971 19.4185 67.3962 19.635C67.5957 19.8565 67.7478 20.1232 67.8415 20.4159C67.8544 20.4552 67.8532 20.4983 67.8382 20.5367C67.8232 20.575 67.7954 20.6059 67.7604 20.623L66.9336 21.0296C66.9148 21.0389 66.8944 21.044 66.8737 21.0445C66.853 21.0451 66.8324 21.0411 66.8132 21.0327C66.794 21.0243 66.7765 21.0118 66.7619 20.9959C66.7472 20.98 66.7357 20.9611 66.728 20.9402C66.6571 20.7362 66.5318 20.5598 66.3682 20.4334C66.2099 20.3124 66.0202 20.2494 65.8266 20.2535C65.7234 20.2511 65.6208 20.2709 65.5247 20.3119C65.4542 20.3406 65.3929 20.3911 65.3484 20.4571C65.309 20.5175 65.2884 20.5901 65.2897 20.6642C65.2881 20.7435 65.3144 20.8204 65.3634 20.8793C65.4189 20.9485 65.5085 21.005 65.6298 21.0478L66.5676 21.3755C66.9868 21.5223 67.3072 21.7336 67.5196 22.0032C67.7378 22.2802 67.8483 22.6214 67.8483 23.0168C67.8525 23.3425 67.7657 23.662 67.5992 23.933C67.4295 24.2021 67.1961 24.4164 66.9236 24.5533C66.6455 24.6989 66.3177 24.7726 65.9505 24.7726Z" fill="#153CFF"/>
<path d="M22.5502 16.1803L22.4574 16.1186C22.2853 16.0197 22.0834 15.9809 21.8854 16.0088C21.6874 16.0366 21.5052 16.1294 21.3692 16.2716C21.2333 16.4139 21.1517 16.597 21.1381 16.7904C21.1245 16.9839 21.1798 17.176 21.2947 17.3347C21.336 17.3786 21.3762 17.423 21.4153 17.469C22.0188 18.1594 22.4288 18.9886 22.6061 19.8769C22.6433 19.9728 22.6622 20.0744 22.6619 20.1769C22.6619 20.1877 22.6619 20.1985 22.6619 20.2093C22.655 20.3902 22.5886 20.5641 22.4722 20.7057C22.3559 20.8473 22.1959 20.9491 22.0156 20.9962C21.8353 21.0433 21.6442 21.0332 21.4702 20.9674C21.2962 20.9016 21.1485 20.7836 21.0488 20.6306C21.0007 20.5579 20.9645 20.4785 20.9415 20.3951C20.3672 19.2079 19.3611 18.2678 18.1159 17.7549C17.4388 17.4772 16.711 17.3345 15.9759 17.3353C15.1062 17.3361 14.2492 17.5375 13.4758 17.9227C12.7023 18.3079 12.0345 18.866 11.5276 19.5507C11.0206 20.2355 10.6891 21.0273 10.5604 21.8607C10.4317 22.6942 10.5094 23.5454 10.7872 24.3439C11.038 25.0574 11.4422 25.711 11.9732 26.2618C12.5041 26.8125 13.1496 27.2477 13.8671 27.5386C14.2771 27.656 14.7024 27.7154 15.1299 27.7151C16.3865 27.7151 17.5733 27.2597 18.3858 26.3717C18.4869 26.262 18.5456 26.1217 18.5517 25.9747C18.5578 25.8277 18.511 25.6832 18.4193 25.566L18.4115 25.5557C18.3566 25.4863 18.2874 25.4288 18.2083 25.3868C18.1292 25.3448 18.0419 25.3192 17.952 25.3118C17.8622 25.3043 17.7717 25.3152 17.6863 25.3436C17.601 25.372 17.5228 25.4173 17.4566 25.4767C17.0989 25.8003 16.6591 26.0265 16.1821 26.1321C15.705 26.2378 15.2075 26.2192 14.7403 26.0782C14.273 25.9372 13.8526 25.6789 13.5217 25.3295C13.1908 24.9802 12.9612 24.5521 12.8563 24.0889C12.8135 23.9 12.7916 23.7073 12.7909 23.5139C12.791 23.0776 12.9008 22.6479 13.1106 22.262C13.3205 21.876 13.6242 21.5454 13.9955 21.2986C14.3668 21.0519 14.7945 20.8965 15.2417 20.8459C15.6888 20.7952 16.142 20.8509 16.562 21.008C17.3029 21.2852 17.9142 21.9626 18.2025 22.6919C18.3802 23.1403 18.8669 24.1539 19.3479 24.7793C19.5383 25.0277 19.7435 25.2651 19.9626 25.4902C20.0838 25.6142 20.2084 25.7344 20.3381 25.8508C20.9206 26.376 21.5795 26.8155 22.2937 27.1552C22.7957 27.3952 23.3748 27.4351 23.9067 27.2663C24.4387 27.0975 24.8812 26.7334 25.1395 26.2521C26.0435 24.5548 26.2791 22.5968 25.8025 20.7435C25.3258 18.8902 24.1693 17.2684 22.5491 16.1809L22.5502 16.1803ZM22.7273 24.3564C22.6115 24.3658 22.4949 24.3527 22.3844 24.3179C22.2739 24.2832 22.1717 24.2274 22.0837 24.1538C21.9957 24.0803 21.9237 23.9905 21.8719 23.8897C21.8202 23.7888 21.7897 23.679 21.7823 23.5667C21.7748 23.4543 21.7906 23.3416 21.8287 23.2352C21.8667 23.1288 21.9263 23.0308 22.0039 22.947C22.0814 22.8632 22.1755 22.7952 22.2805 22.7471C22.3856 22.6989 22.4995 22.6715 22.6156 22.6665H22.6614C22.7838 22.6665 22.9049 22.6915 23.0168 22.7398C23.1287 22.7881 23.2288 22.8587 23.3108 22.9469C23.3927 23.0351 23.4546 23.139 23.4924 23.2519C23.5302 23.3648 23.5431 23.4841 23.5302 23.6021C23.5107 23.8 23.4192 23.9846 23.2721 24.123C23.125 24.2615 22.9319 24.3448 22.7273 24.358V24.3564Z" fill="#153CFF"/>
</g>
<defs>
<clipPath id="clip0_6438_2196">
<rect width="64" height="11.7183" fill="white" transform="translate(10.5 16)"/>
</clipPath>
</defs>
</svg>
