<svg width="36" height="36" viewBox="0 0 36 36" fill="none" xmlns="http://www.w3.org/2000/svg">
<g clip-path="url(#clip0_6538_1726)">
<path d="M18.145 32.29C25.9571 32.29 32.29 25.9571 32.29 18.145C32.29 10.3329 25.9571 4 18.145 4C10.3329 4 4 10.3329 4 18.145C4 25.9571 10.3329 32.29 18.145 32.29Z" fill="#001E2B"/>
<path d="M21.9261 16.4162C21.0326 12.473 18.9211 11.1765 18.6937 10.6811C18.4451 10.3317 18.1931 9.71005 18.1931 9.71005C18.189 9.69955 18.1823 9.68104 18.1746 9.66309C18.1489 10.0126 18.1357 10.1474 17.8052 10.4999C17.2936 10.8999 14.6685 13.1026 14.4549 17.5826C14.2557 21.7609 17.4732 24.2507 17.9083 24.5681L17.9577 24.6032V24.6002C17.9605 24.6211 18.0959 25.5947 18.1909 26.6263H18.5318C18.6118 25.8971 18.7317 25.1728 18.891 24.4568L18.9186 24.4388C19.1132 24.2993 19.2988 24.1475 19.4742 23.9843L19.4941 23.9664C20.419 23.1119 22.0819 21.1355 22.0656 17.9843C22.0621 17.4587 22.0155 16.9342 21.9261 16.4162ZM18.1547 22.209C18.1547 22.209 18.1547 16.3488 18.3481 16.3499C18.4989 16.3499 18.6943 23.9089 18.6943 23.9089C18.4257 23.8766 18.1547 22.6649 18.1547 22.209Z" fill="#00ED64"/>
</g>
<defs>
<clipPath id="clip0_6538_1726">
<rect width="28.29" height="28.29" fill="white" transform="translate(4 4)"/>
</clipPath>
</defs>
</svg>
