<svg width="36" height="36" viewBox="0 0 36 36" fill="none" xmlns="http://www.w3.org/2000/svg">
<g clip-path="url(#clip0_6438_2146)">
<path d="M17.0738 3.86503C17.0129 3.87056 16.8194 3.88991 16.6452 3.90374C12.6277 4.2659 8.86455 6.43332 6.48114 9.76463C5.15395 11.6169 4.3051 13.718 3.98437 15.9434C3.871 16.7203 3.85718 16.9497 3.85718 18.003C3.85718 19.0563 3.871 19.2858 3.98437 20.0627C4.75303 25.3734 8.53275 29.8354 13.659 31.4886C14.577 31.7844 15.5447 31.9862 16.6452 32.1079C17.0738 32.1549 18.9263 32.1549 19.3549 32.1079C21.2544 31.8978 22.8636 31.4278 24.4507 30.6178C24.694 30.4934 24.741 30.4602 24.7079 30.4326C24.6858 30.416 23.6489 29.0254 22.4046 27.3445L20.1429 24.2897L17.3088 20.0958C15.7493 17.7902 14.4664 15.9047 14.4553 15.9047C14.4443 15.902 14.4332 17.7653 14.4277 20.0405C14.4194 24.0243 14.4166 24.1846 14.3669 24.2786C14.295 24.4141 14.2397 24.4694 14.1235 24.5302C14.0351 24.5744 13.9576 24.5827 13.5401 24.5827H13.0618L12.9346 24.5026C12.8516 24.45 12.7908 24.3809 12.7493 24.3007L12.6913 24.1763L12.6968 18.6334L12.7051 13.0876L12.7908 12.9798C12.8351 12.9218 12.9291 12.8471 12.9954 12.8112C13.1088 12.7559 13.153 12.7504 13.6314 12.7504C14.1954 12.7504 14.2894 12.7725 14.436 12.9328C14.4775 12.9771 16.012 15.2882 17.848 18.0722C19.6839 20.8561 22.1945 24.6574 23.4277 26.5235L25.6673 29.9156L25.7807 29.8409C26.7844 29.1885 27.8461 28.2596 28.6867 27.292C30.4756 25.2379 31.6286 22.7332 32.0157 20.0627C32.1291 19.2858 32.1429 19.0563 32.1429 18.003C32.1429 16.9497 32.1291 16.7203 32.0157 15.9434C31.247 10.6327 27.4673 6.17069 22.341 4.51747C21.4369 4.22443 20.4747 4.02261 19.3963 3.90097C19.1309 3.87333 17.3033 3.84292 17.0738 3.86503ZM22.8636 12.4186C22.9963 12.485 23.1042 12.6121 23.1429 12.7448C23.165 12.8167 23.1705 14.3538 23.165 17.8178L23.1567 22.7885L22.2802 21.4449L21.401 20.1014V16.4881C21.401 14.152 21.412 12.8388 21.4286 12.7752C21.4728 12.6204 21.5696 12.4988 21.7023 12.4269C21.8157 12.3689 21.8572 12.3633 22.2913 12.3633C22.7005 12.3633 22.7724 12.3689 22.8636 12.4186Z" fill="black"/>
</g>
<defs>
<clipPath id="clip0_6438_2146">
<rect width="28.2857" height="28.2857" fill="white" transform="translate(3.85718 3.85742)"/>
</clipPath>
</defs>
</svg>
